<svg id="Capa_1" data-name="Capa 1" xmlns="http://www.w3.org/2000/svg" xmlns:xlink="http://www.w3.org/1999/xlink" viewBox="0 0 322.27 103.27"><defs><style>.cls-1{fill:none;}.cls-2{clip-path:url(#clip-path);}.cls-3{fill:#8f97aa;}.cls-4{clip-path:url(#clip-path-2);}.cls-5{clip-path:url(#clip-path-3);}.cls-6{fill:#eceff1;}.cls-7{fill:#fff;}.cls-8{fill:#cdcdcd;}.cls-9{clip-path:url(#clip-path-4);}.cls-10{clip-path:url(#clip-path-5);}.cls-11{fill:#2d2d2d;}.cls-12{fill:#15359b;}</style><clipPath id="clip-path" transform="translate(-0.1 -0.01)"><rect class="cls-1" y="0.01" width="146.67" height="102.66"/></clipPath><clipPath id="clip-path-2" transform="translate(-0.1 -0.01)"><rect class="cls-1" x="60" y="34.67" width="86.67" height="69.02"/></clipPath><clipPath id="clip-path-3" transform="translate(-0.1 -0.01)"><rect class="cls-1" y="6.67" width="112" height="97.02"/></clipPath><clipPath id="clip-path-4" transform="translate(-0.1 -0.01)"><rect class="cls-1" y="0.01" width="146.67" height="85.33"/></clipPath><clipPath id="clip-path-5" transform="translate(-0.1 -0.01)"><rect class="cls-1" y="0.01" width="147.55" height="103.68"/></clipPath></defs><title>Logo</title><g class="cls-2"><path class="cls-3" d="M146.61,35.27l-85.9,66.64L.54,50.12,86.42.51Z" transform="translate(-0.1 -0.01)"/></g><g class="cls-4"><path d="M146.61,35.27v17.9l-85.9,49.6V84.86Z" transform="translate(-0.1 -0.01)"/></g><g class="cls-5"><path class="cls-6" d="M90.63,64.93,71.48,76,67.8,73.86a2.66,2.66,0,0,0-2.62,0l-9.32,5.37L13.24,54.63a2.09,2.09,0,0,1,0-3.62l5.45-3.13a1.36,1.36,0,0,0,0-2.36L16,44l6.08-3.52,2.46,1.43a1.76,1.76,0,0,0,1.75,0l.4-.24a1.07,1.07,0,0,0,0-1.86l-1.72-1,17-9.84c2,1,5.13,1.3,7.28-.08,2-1.28,2-3.24.48-4.4l11.61-6.72A43.45,43.45,0,0,1,77,12.65a.81.81,0,0,0-.2-1.61l-2.15.25A.66.66,0,0,1,74.5,10l5.63-.72A10.36,10.36,0,0,0,83.91,8a9.85,9.85,0,0,1,9.8,0l17.12,9.88L89.67,60.33a.85.85,0,0,0,.54.88A2,2,0,0,1,90.63,64.93ZM.54,50.12V68l60.17,34.81V84.86Z" transform="translate(-0.1 -0.01)"/></g><path class="cls-7" d="M114.3,53.12c-6.94,4.45-15.38,6.35-23.8,6.46a.85.85,0,0,0-.83.75v.19c-10.48-.14-20.79-2.93-28.16-7-.67-.37-1.31-.76-1.93-1.17-10.5-7.17-13.19-22.08,1.52-32.08,13.51-9.18,34.07-8.75,48.71-3l4.89,2.83C127.91,27.83,129.55,43.33,114.3,53.12Z" transform="translate(-0.1 -0.01)"/><path class="cls-6" d="M43.52,51.39l5.89,2.44,16-.69.26.47a1,1,0,0,0,1.46.36l1.44-1,11-.48a1.79,1.79,0,0,0,.89-.28l.92-.56,8.74-.24A1.68,1.68,0,0,0,91.7,49.5v1.23a1.69,1.69,0,0,1-1.62,2l-8.74.24-.92.56a1.9,1.9,0,0,1-.89.28l-11,.47-1.44,1a1,1,0,0,1-1.46-.35l-.26-.47-16,.69-5.89-2.45" transform="translate(-0.1 -0.01)"/><path class="cls-7" d="M90.08,51.44l-8.74.24-.92.56a1.79,1.79,0,0,1-.89.28l-11,.48-1.44,1a1,1,0,0,1-1.46-.36l-.26-.47-16,.69-5.89-2.44v-3a2.48,2.48,0,0,0-.81-1.85A12.7,12.7,0,0,1,46,43.86a23,23,0,0,0,8.93,2.62c5.85.59,29.2,1.4,35.15,1.6a1.68,1.68,0,0,1,0,3.36Z" transform="translate(-0.1 -0.01)"/><path class="cls-8" d="M86.31,12a1.7,1.7,0,0,1,1.41-1.51l.17,0a.73.73,0,0,0,.67-.8A.75.75,0,0,0,87.68,9l-.19,0a.55.55,0,0,1-.68-.39h0a.55.55,0,0,1,.3-.64,3.45,3.45,0,0,1,3.43.46c2.22,1.59,3.87,2.92,5.37,3.91a.1.1,0,0,1-.08.18A68.2,68.2,0,0,0,86.31,12Zm9.61,26.9c-4.76,3-11.86,2.11-15.93-.11a6.42,6.42,0,0,1-.56-.34,5.55,5.55,0,0,1-2.56-4.58v2.6A5.57,5.57,0,0,0,79.43,41c.18.12.37.24.57.35,4.06,2.22,11.16,3.16,15.92.11,2.22-1.43,3.25-3.26,3.27-5V33.83C99.17,35.6,98.14,37.43,95.92,38.86ZM89.38,64.39l-.09.46a2.18,2.18,0,0,1-1,1.45l-3.69,2.13L80,67.26a30.27,30.27,0,0,0,4.18-10.21l3.48.36-.79,3.24a1,1,0,0,0,.8,1.25A2.11,2.11,0,0,1,89.38,64.39ZM78.3,71.22c-1.21.77-1,1.43-1,1.43L71.49,76S69,74.65,67.8,73.86a2.75,2.75,0,0,0-2.62,0l-9.32,5.37L43.44,72.06l12.78-7.38a4.48,4.48,0,0,1,4.48,0c2.07,1.17,5,2.87,6.53,3.75a7.91,7.91,0,0,0,7,.28,5.27,5.27,0,0,1,4.11,0A1.38,1.38,0,0,1,78.3,71.22Z" transform="translate(-0.1 -0.01)"/><path class="cls-6" d="M78.82,50.07a1,1,0,0,1-1,1l-4.66.2a1,1,0,0,1-1-1V49.9a1,1,0,0,1,1-1l4.66.17A1,1,0,0,1,78.82,50.07ZM54.26,47.74a6.53,6.53,0,0,0-6.34,0,2.12,2.12,0,0,0-.18,3.71,1.64,1.64,0,0,0,.22.14,6.67,6.67,0,0,0,6.25,0C56,50.47,55.82,48.65,54.26,47.74ZM89.11,49H87.58a.66.66,0,0,0-.66.66v.09a.67.67,0,0,0,.66.67h1.53a.67.67,0,0,0,.67-.67V49.7A.67.67,0,0,0,89.11,49ZM63.63,97.16a2.62,2.62,0,0,0-1.3,2.2.88.88,0,0,0,1.34.79A2.67,2.67,0,0,0,64.94,98,.87.87,0,0,0,63.63,97.16Zm33.6-19.43a2.62,2.62,0,0,0-1.3,2.21.88.88,0,0,0,1.34.78,2.67,2.67,0,0,0,1.27-2.12A.88.88,0,0,0,97.23,77.73Zm42.12-24.4a2.6,2.6,0,0,0-1.29,2.2.87.87,0,0,0,1.34.78,2.64,2.64,0,0,0,1.27-2.11A.88.88,0,0,0,139.35,53.33Z" transform="translate(-0.1 -0.01)"/><g class="cls-9"><path class="cls-7" d="M45.52,28.23,42,26.13,45,24.43l3.54,2.06a1,1,0,0,1,0,1.82,3.08,3.08,0,0,1-2.92,0ZM13.57,44.78l-1.89-1.09L.54,50.12l4.79,2.93H5.6l8-4.62A2.11,2.11,0,0,0,13.57,44.78ZM76.67,6.15l2.49,1.43a3.23,3.23,0,0,0,3.24,0l8.13-4.69L86.42.52ZM141.6,32.37l-6.95,4a1.84,1.84,0,0,0,0,3.18l2.27,1.31,9.7-5.6ZM54,59.7v.72a36.9,36.9,0,0,1-6.4.36c.6.32,1.24.63,1.92.94L38.63,67.49c-7.53-3-11-6.68-12.66-9.35A6.59,6.59,0,0,0,19.89,55c-1.21.07-2.54.13-3.82.13a6.23,6.23,0,0,1-2.64-.7l-.2-.11a1.85,1.85,0,0,1,.16-3.24,4.58,4.58,0,0,1,2.35-.72l2.19-.25A8.4,8.4,0,0,0,24.8,44.8c3.14-8,12.93-13.4,12.93-13.4l9,5.2-1.29.75a2.31,2.31,0,0,0,0,4l1.41.82C40.23,45,37.09,51.4,42.5,57.06a3,3,0,0,0,1-2.25V52.62l5.89,2.45v1.65l-.32,0a1.05,1.05,0,0,0-1,1.05,1.07,1.07,0,0,0,.65,1A12.54,12.54,0,0,0,54,59.7ZM43.84,58.3c-.7-.59-1.17-1.07-1.3-1.2A15.26,15.26,0,0,0,43.84,58.3Zm6-7.95.08.06a2.61,2.61,0,0,0,2.43,0,.83.83,0,0,0,0-1.51,2.56,2.56,0,0,0-2.46,0A.82.82,0,0,0,49.81,50.35Zm5.74,31.53.21-.12-.26-.16Zm9.71-5.59-9.5,5.48,5,3.09,11-6.35-3.84-2.22A2.61,2.61,0,0,0,65.26,76.29Z" transform="translate(-0.1 -0.01)"/></g><g class="cls-10"><path d="M135.58,37.61a2.52,2.52,0,0,1,2.44,0,.82.82,0,0,1,0,1.49,2.57,2.57,0,0,1-2.41,0l-.08-.05A.82.82,0,0,1,135.58,37.61ZM40.35,63.73l.1.06a2.46,2.46,0,0,0,1.11.27,1.9,1.9,0,0,0,1-.28,1,1,0,0,0,0-1.79,2.18,2.18,0,0,0-2.17,0,1.06,1.06,0,0,0-.51.88A1,1,0,0,0,40.35,63.73ZM38.91,36.84l.1.06a2.42,2.42,0,0,0,1.1.27,1.9,1.9,0,0,0,1-.27,1.1,1.1,0,0,0,.55-.93,1.09,1.09,0,0,0-.55-.87,2.18,2.18,0,0,0-2.17,0,1.07,1.07,0,0,0-.51.87A1.05,1.05,0,0,0,38.91,36.84Zm-22,15.25a2.18,2.18,0,0,0-2.17,0,1.09,1.09,0,0,0-.5.88,1,1,0,0,0,.46.84l.09.06a2.3,2.3,0,0,0,1.1.27,1.9,1.9,0,0,0,1-.27,1.08,1.08,0,0,0,.55-.92A1,1,0,0,0,16.86,52.09ZM79.57,6.85a2.55,2.55,0,0,0,2.4,0,.82.82,0,0,0,0-1.49,2.49,2.49,0,0,0-2.44,0,.81.81,0,0,0-.07,1.42ZM46.23,27.78l.05,0a1.57,1.57,0,0,0,1.46,0,.5.5,0,0,0,0-.91,1.53,1.53,0,0,0-1.47,0A.5.5,0,0,0,46.23,27.78ZM5.8,50.48a2.6,2.6,0,0,0,2.41,0,.81.81,0,0,0,0-1.49,2.5,2.5,0,0,0-2.43,0,.82.82,0,0,0-.07,1.43ZM94,33.75a3.48,3.48,0,0,1-1.84,3,7.3,7.3,0,0,1-3.93,1,9.57,9.57,0,0,1-4.46-1.08,3.37,3.37,0,0,1-.32-.19A3.24,3.24,0,0,1,82,33.85,3.45,3.45,0,0,1,83.72,31c2.47-1.68,6.27-1.33,8.53,0A3.31,3.31,0,0,1,94,33.75Zm-.88,0a2.44,2.44,0,0,0-1.35-2,8.08,8.08,0,0,0-3.33-1,1.83,1.83,0,0,1,.45.17.57.57,0,0,1,0,1,1.81,1.81,0,0,1-1.68,0l-.06,0a.57.57,0,0,1,0-1,1.31,1.31,0,0,1,.51-.19,6.34,6.34,0,0,0-3.53,1,2.56,2.56,0,0,0-1.31,2.09A2.33,2.33,0,0,0,84,35.75a2.07,2.07,0,0,0,.25.15c2,1.11,5.38,1.43,7.5.07A2.63,2.63,0,0,0,93.16,33.77Zm6.47,2.61c0,2.06-1.25,4-3.47,5.4a14.19,14.19,0,0,1-7.64,2,18.83,18.83,0,0,1-8.73-2.11,6.46,6.46,0,0,1-3.36-5.24V33.88a6.48,6.48,0,0,1,3.21-5.28c4.74-3.22,12.31-2.52,16.62,0a6.17,6.17,0,0,1,3.36,5.1v2.7Zm-.9.37a8.38,8.38,0,0,1-2.57,2.48,14.19,14.19,0,0,1-7.64,2,18.82,18.82,0,0,1-8.73-2.1,6,6,0,0,1-.6-.37,6.59,6.59,0,0,1-1.86-1.9,5.26,5.26,0,0,0,2.35,3.72c.17.12.35.22.53.33,4.16,2.27,11.09,2.93,15.47.12A6,6,0,0,0,98.73,36.75Zm0-3a5.31,5.31,0,0,0-2.93-4.36c-4.08-2.37-11.23-3-15.69,0a5.67,5.67,0,0,0-2.82,4.51v.09A5.16,5.16,0,0,0,79.68,38a4.15,4.15,0,0,0,.53.32c4.16,2.28,11.09,3,15.47.13C97.7,37.2,98.79,35.49,98.75,33.7ZM56,95,49.7,91.23v3.92L56,98.78Zm39.07-32.8.09.05a2.55,2.55,0,0,0,2.4,0,.82.82,0,0,0,0-1.49,2.52,2.52,0,0,0-2.44,0A.81.81,0,0,0,95.06,62.19Zm52-27.18V53.42l-.22.13L60.71,103.27l-.22-.12L.1,68.21V49.86l.75-.43L86.42,0l59.7,34.46Zm-5.45-2.13-6.74,3.88a1.37,1.37,0,0,0-.7,1.2,1.4,1.4,0,0,0,.7,1.22l2,1.18,8.77-5.06s0,0,0,0,0,0,0,0Zm-64-26.73,1.83,1a2.8,2.8,0,0,0,2.8,0l7.47-4.31L86.42,1ZM45.89,24.43l2.9,1.69a1.39,1.39,0,0,1,.29,2.32,2.5,2.5,0,0,0,1.26-1.88h0a2.07,2.07,0,0,0-.89-1.74l-.51-.4,12.16-7A43.78,43.78,0,0,1,77,12.22a.37.37,0,0,0,.32-.37.34.34,0,0,0-.12-.27.38.38,0,0,0-.29-.1l-2.15.25a1.09,1.09,0,0,1-.27-2.17l5.63-.73a9.63,9.63,0,0,0,3.61-1.2,10.35,10.35,0,0,1,10.25,0l21,12.12c6.65,3.86,10.54,9.73,10.68,16.1.14,6.09-3.12,11.82-9.22,16.33L136,40.87l-1.62-.93a2.28,2.28,0,0,1,0-3.94l6.3-3.63-50.19-29L82.63,8a3.72,3.72,0,0,1-3.69,0L76.68,6.65Zm43.92,40-.09.46v0l.69-.4A1.8,1.8,0,0,0,91.27,63a1.65,1.65,0,0,0-1.21-1.34,1.27,1.27,0,0,1-.72-.68c-.68,0-1.37,0-2-.07a.48.48,0,0,0,.09.32.55.55,0,0,0,.38.26,2.58,2.58,0,0,1,1.65,1.08A2.53,2.53,0,0,1,89.81,64.47ZM38.6,67l10-5.27c-6-2.88-9.26-6.7-9.25-10.78,0-3.53,2.47-6.81,6.6-8.84l-.68-.39a2.75,2.75,0,0,1,0-4.76l.64-.37-8.14-4.7-.08,0A36.55,36.55,0,0,0,27.38,41h0a1.71,1.71,0,0,1-.76,1.15,18.07,18.07,0,0,0-1.45,2.88A8.66,8.66,0,0,1,18,50.55l-2.22.25a4.12,4.12,0,0,0-2.13.64,1.65,1.65,0,0,0-.84,1.33A1.48,1.48,0,0,0,13.48,54l.15.1a6,6,0,0,0,2.45.64c1.11,0,2.39-.05,3.78-.14a7,7,0,0,1,6.48,3.35C27.89,60.45,31.27,64.08,38.6,67Zm-13-8.65a6.13,6.13,0,0,0-5.67-2.91c-1.41.09-2.71.13-3.86.13l-.33,0,22.46,13v-.74C30.69,64.78,27.2,61,25.59,58.36Zm-7.71-8.67a7.62,7.62,0,0,0,1.06-.2V48.23l0,0-2.86,1.64Zm1.94-3h0v2.51a7.86,7.86,0,0,0,1.83-1v-7L16.89,44l2,1.17a1.79,1.79,0,0,1,.9,1.55Zm4.52-1.93a18.55,18.55,0,0,1,1.05-2.22,2.18,2.18,0,0,1-1.05-.29l-1.81-1v6.3A7.71,7.71,0,0,0,24.34,44.77Zm2.84-4.93a30,30,0,0,1,3.7-4l-5,2.9.67.38A1.79,1.79,0,0,1,27.18,39.84Zm14.34-6.76V29.71L38.6,31.4Zm35.71-20-.16,0a42.79,42.79,0,0,0-15.53,5L50.45,24.55a2.86,2.86,0,0,1,.77,2v5.39c1.42-4.53,4.72-8.66,9.64-12a41.66,41.66,0,0,1,16.37-6.35ZM40.18,51a8.24,8.24,0,0,0,2.29,5.43l.27-.34a1.63,1.63,0,0,0,.34-1V48.36a2.13,2.13,0,0,0-.66-1.54l-.3-.27.26-.32a12.64,12.64,0,0,1,3.42-2.75l.22-.12.21.12.2.11v-.74C42.52,44.72,40.19,47.74,40.18,51Zm6.13-13.6-.64.37a1.88,1.88,0,0,0-.94,1.62A1.85,1.85,0,0,0,45.67,41l.64.37ZM43.08,57a20.19,20.19,0,0,0,4.65,3.31,35.86,35.86,0,0,0,5.15-.21,12.89,12.89,0,0,1-4.27-1A1.5,1.5,0,0,1,49,56.32v-1l-5-2.08v1.77a2.5,2.5,0,0,1-.53,1.54Zm20.09-2.12-13.32.58V56.6l.07-.06,15.26-.71C64.49,55.54,63.82,55.22,63.17,54.91Zm2-.06,0,0h-.05Zm.18-.91a.83.83,0,0,0-.08-.12l-.13-.24-15.78.7L44,52v.29l5.53,2.3Zm-15.8,7.28.46.22v1a36,36,0,0,0,3.6-.29V60.93A35.79,35.79,0,0,1,49.52,61.22ZM50,65.63l8.23-4.77a1.09,1.09,0,0,0,.6-.9,1,1,0,0,0-.57-.82,3.8,3.8,0,0,0-1.77-.46l-1.94.1a20,20,0,0,1-4,0c-.3,0-1.22-.18-1.4-.86a1,1,0,0,1,.15-.76l-.19,0A.62.62,0,0,0,49,58.37a12.55,12.55,0,0,0,5,.9l.45,0v3.61l-.37.07a35.5,35.5,0,0,1-4.11.36Zm9.2-6.85,6-.28C64,58,62.86,57.44,61.79,56.87l-11.53.54c-.19.16-.23.28-.23.3s.13.13.67.21a18.9,18.9,0,0,0,3.77,0l2-.11h0a4.81,4.81,0,0,1,2.21.59A1.87,1.87,0,0,1,59.17,58.78Zm6,2.38c-1.18-.51-2.33-1.06-3.41-1.63l-2.14.1a2.54,2.54,0,0,1,0,.29h0v1.5ZM81,64.69c.25-.49.53-1,.81-1.66a65.06,65.06,0,0,1-14.7-3.75l-3.54.17A61.27,61.27,0,0,0,81,64.69Zm1.17-2.5c.22-.53.44-1.11.65-1.7A65.94,65.94,0,0,1,67.1,56.62l-3.54.17A61.82,61.82,0,0,0,82.16,62.19ZM68.39,53.8l11.12-.48a1.47,1.47,0,0,0,.68-.21l1-.63,8.86-.24A1.23,1.23,0,0,0,91,51.8a1.07,1.07,0,0,0,.15-.22,2.11,2.11,0,0,1-1,.31l-8.62.23-.82.51a2.24,2.24,0,0,1-1.1.33l-10.87.48-1.34.9a1.48,1.48,0,0,1-1.16.2,1.07,1.07,0,0,1-.27-.09l.11.2a.56.56,0,0,0,.37.28.58.58,0,0,0,.46-.08ZM91.26,50v-.4a1.24,1.24,0,0,0-1.18-1c-6.79-.23-29.39-1-35.18-1.6A23.58,23.58,0,0,1,46,44.36a13.29,13.29,0,0,0-2.71,2.14A3,3,0,0,1,44,48.36v2.73l5.53,2.31,16.14-.71.39.71a.55.55,0,0,0,.37.29.58.58,0,0,0,.46-.09l1.54-1,11.12-.48a1.47,1.47,0,0,0,.68-.21l1-.63L90.07,51a1.2,1.2,0,0,0,.92-.44A1.27,1.27,0,0,0,91.26,50ZM50.34,28.52a4.14,4.14,0,0,1-.87.71,8.27,8.27,0,0,1-7.07.38v4L46.63,36l.55.32v5.49l.12.07V44a5.27,5.27,0,0,0,1.7-.68,2.29,2.29,0,0,0,1.34-2.06C50.35,41.06,50.34,32.47,50.34,28.52ZM39.06,69l2.53,1.45,7.51-4.34V62.45l-10,5.31Zm3.41,2,1,.56L56,64.3a4.87,4.87,0,0,1,2.8-.64V61.51l-.14.1Zm1.84,1.07,11.55,6.67L65,73.48a3.07,3.07,0,0,1,3.06,0l3.47,2,5.35-3.09a2.36,2.36,0,0,1,1.23-1.55,1.12,1.12,0,0,0,.62-.93,1,1,0,0,0-.58-.83,4.87,4.87,0,0,0-3.73,0A8.38,8.38,0,0,1,67,68.81c-1.48-.87-4.37-2.52-6.53-3.76a4.07,4.07,0,0,0-4,0Zm36.13-1.75.82-.47-.82-.21Zm1.9-1.1,1.09-.63-3-.76v.9ZM84.52,68l3.52-2a1.66,1.66,0,0,0,.82-1.14L89,64.3A1.68,1.68,0,0,0,88.68,63a1.63,1.63,0,0,0-1.09-.71,1.46,1.46,0,0,1-1.14-1.78l.67-2.76-2.58-.26A30.92,30.92,0,0,1,80.71,67Zm6-8.81c9.09-.11,17.23-2.33,23.57-6.39,7-4.51,10.82-10.49,10.67-16.84-.13-6.07-3.87-11.67-10.25-15.37l-4.87-2.81c-13.4-5.28-34.2-6.62-48.26,2.94-12,8.13-11.5,18.63-7.42,25.24.35.05.7.1,1.06.13,5.77.59,28.34,1.38,35.12,1.6a2.11,2.11,0,0,1,1.59.81c.24,0,.6,0,1.13,0,.68,0,1.35,0,1.35,0h.21l.75,1,2.6.31a.59.59,0,0,1,.54.57.6.6,0,0,1-.47.62l-2.67.62-.75.89-3.2.27a2.16,2.16,0,0,1-1.1.34l-8.62.23-.82.5a2.16,2.16,0,0,1-1.1.34l-10.87.48-1.34.9-.22.12a64.68,64.68,0,0,0,16,4A23.85,23.85,0,0,0,83.76,57l.08-.39,4.37.44-.73,3q.9,0,1.8.06A1.29,1.29,0,0,1,90.49,59.14ZM92,51.83l2-.17.72-.83,1.44-.34-1.44-.17-.73-.94c-.58,0-1.31,0-1.83-.06,0,0,0,.08,0,.11a2.5,2.5,0,0,1,0,.61v.66A2.07,2.07,0,0,1,92,51.83ZM89,9.59a1.2,1.2,0,0,1-1.07,1.28l-.17,0a1.35,1.35,0,0,0-.88.63h0a70.3,70.3,0,0,1,7.59.38l-1.64-1.22c-.75-.57-1.61-1.21-2.56-1.89a3.07,3.07,0,0,0-3-.43.15.15,0,0,0-.07.14.12.12,0,0,0,.15.08l.2,0a1.18,1.18,0,0,1,1,.2A1.22,1.22,0,0,1,89,9.59Zm-2.26,2.8v.37a66,66,0,0,1,9.06.57l0-.38h0A65.51,65.51,0,0,0,86.74,12.39ZM96.15,12l.46.31.07,1.18a63.67,63.67,0,0,1,9,2l-12.16-7a9.48,9.48,0,0,0-9.38,0A10.68,10.68,0,0,1,80.18,9.7l-5.63.72a.19.19,0,0,0-.14.09.21.21,0,0,0,0,.17.22.22,0,0,0,.25.18l2.15-.25a1.23,1.23,0,0,1,1,.31,1.25,1.25,0,0,1,.42.93v0c0,.55,0,1.18,0,1.58a57.79,57.79,0,0,1,7.76-.68V12a1.88,1.88,0,0,1,.51-1.23V8.65a1,1,0,0,1,.55-1.07,3.88,3.88,0,0,1,3.85.49c1,.7,1.84,1.34,2.61,1.91C94.42,10.76,95.3,11.42,96.15,12ZM42.88,26.17l2.88,1.7.07,0a2.65,2.65,0,0,0,2.48,0,.7.7,0,0,0,.39-.57.61.61,0,0,0-.36-.5L45,24.94ZM12.55,43.69l1.24.71a2.55,2.55,0,0,1,0,4.41L6.47,53.05,55.55,81.38,65,75.91a3.09,3.09,0,0,1,3.06,0L71.72,78l37.89-21.88A48.81,48.81,0,0,1,90.51,60a.43.43,0,0,0-.41.36.42.42,0,0,0,.27.43,2.43,2.43,0,0,1,1.77,2.08,2.65,2.65,0,0,1-1.29,2.41l-2.37,1.37L84.65,68.9,71.49,76.5l-3.91-2.26a2.16,2.16,0,0,0-2.17,0l-9.55,5.5L13,55a2.5,2.5,0,0,1-1.27-2.19A2.47,2.47,0,0,1,13,50.64l5.45-3.15a.89.89,0,0,0,.46-.79h0a.89.89,0,0,0-.46-.79L15.14,44l7-4,2.69,1.54a1.26,1.26,0,0,0,1.3,0,.89.89,0,0,0,.45-.78.9.9,0,0,0-.45-.79l-2-1.14,13-7.5.45-.26,4.43-2.57.21.1a8.07,8.07,0,0,0,5.69.49,3.6,3.6,0,0,1-.66.06,3.92,3.92,0,0,1-1.77-.42l-.13-.08L42,26.67ZM1.41,50.12,5.6,52.54l7.75-4.49a1.66,1.66,0,0,0,0-2.89l-1.67-1ZM57,93.6,4.24,63.09V69.6l7.12,4.12V69.64L12,70,36.36,84c.24.14.24.14.23,2.48v1.84L57,100.12Zm3.26-8.49L1,50.88V67.71l2.39,1.38V61.57L57.88,93.1v7.53l2.4,1.38V85.11Zm.44-.75,10.13-5.85-3.18-1.84a2.18,2.18,0,0,0-2.18,0l-9.05,5.22ZM146.18,36l-.06.05-85,49.05V102l85-49.1Zm-99,54.38-1.66-2.55-6.36-3.67-2,.76v3l10,5.79V90.39Zm15.26-9.53a2.55,2.55,0,0,0-2.44,0A.82.82,0,0,0,60,82.29l.09,0a2.55,2.55,0,0,0,2.4,0A.82.82,0,0,0,62.49,80.86ZM10,67.47,6.24,65.3v4.51L10,72ZM86.16,34.94a1.74,1.74,0,0,0-1.7,0,.56.56,0,0,0,0,1l.06,0a1.81,1.81,0,0,0,1.68,0A.57.57,0,0,0,86.16,34.94Zm.72,29.42,0,0a1.48,1.48,0,0,0,1.36,0,.47.47,0,0,0,0-.85,1.42,1.42,0,0,0-1.37,0A.45.45,0,0,0,86.88,64.36Zm3.34-14.65v.08a1.11,1.11,0,0,1-1.11,1.11H87.58a1.11,1.11,0,0,1-1.1-1.11v-.08a1.11,1.11,0,0,1,1.1-1.11h1.53A1.11,1.11,0,0,1,90.22,49.71Zm-.88,0a.23.23,0,0,0-.23-.23H87.58a.23.23,0,0,0-.23.23v.08a.23.23,0,0,0,.23.23h1.53a.23.23,0,0,0,.23-.23ZM76.09,70.33l0,0a1.4,1.4,0,0,0,1.35,0,.46.46,0,0,0,0-.84,1.44,1.44,0,0,0-1.38,0A.45.45,0,0,0,76.09,70.33Zm3.17-20.26a1.43,1.43,0,0,1-1.38,1.43l-4.66.2h-.06a1.45,1.45,0,0,1-1.44-1.43V49.9a1.44,1.44,0,0,1,1.49-1.44l4.65.17A1.44,1.44,0,0,1,79.26,50.07Zm-.88,0a.57.57,0,0,0-.54-.56l-4.66-.16h0a.56.56,0,0,0-.39.15.57.57,0,0,0-.17.41v.37a.54.54,0,0,0,.18.41.55.55,0,0,0,.41.15l4.65-.2A.58.58,0,0,0,78.38,50.06Zm11.28-15a2.73,2.73,0,0,1-1.49.4,3.63,3.63,0,0,1-1.66-.4.6.6,0,0,1-.13-.09,1.36,1.36,0,0,1-.63-1.13,1.44,1.44,0,0,1,.7-1.19,3.25,3.25,0,0,1,3.21,0,1.4,1.4,0,0,1,.76,1.17A1.46,1.46,0,0,1,89.66,35.07Zm-.12-1.24a.52.52,0,0,0-.31-.43A2.48,2.48,0,0,0,88,33.1a2,2,0,0,0-1.06.28.63.63,0,0,0-.32.47.52.52,0,0,0,.25.42l.06,0a2.45,2.45,0,0,0,2.25,0A.6.6,0,0,0,89.54,33.83Zm2.13,1.09a1.74,1.74,0,0,0-1.7,0,.56.56,0,0,0,0,1L90,36a1.81,1.81,0,0,0,1.68,0A.57.57,0,0,0,91.67,34.92ZM55.93,49.59A2.82,2.82,0,0,1,54.45,52a5.86,5.86,0,0,1-3.14.83A7.67,7.67,0,0,1,47.75,52a2.26,2.26,0,0,1-.26-.16,2.61,2.61,0,0,1-1.19-2.14,2.78,2.78,0,0,1,1.37-2.29,6.94,6.94,0,0,1,6.81,0A2.67,2.67,0,0,1,55.93,49.59Zm-3.55,1.3a2.69,2.69,0,0,1-1.19.27,3.17,3.17,0,0,1-1.33-.29v.93a6.68,6.68,0,0,0,2.52.06Zm0-1.25a.47.47,0,0,0-.26-.35A2.26,2.26,0,0,0,51.05,49a1.6,1.6,0,0,0-.93.25.51.51,0,0,0-.27.38.41.41,0,0,0,.2.33s0,0,.05,0a2.13,2.13,0,0,0,2,0C52.28,49.93,52.39,49.78,52.38,49.64Zm2.68,0a1.81,1.81,0,0,0-1-1.49,6.08,6.08,0,0,0-5.88,0,2,2,0,0,0-1,1.57A1.76,1.76,0,0,0,48,51.09a1.18,1.18,0,0,0,.19.11,5,5,0,0,0,.81.36V49.72s0,0,0-.06a1.35,1.35,0,0,1,.66-1.11,3,3,0,0,1,2.93,0,1.32,1.32,0,0,1,.69,1h0v2a3.73,3.73,0,0,0,.72-.36A2,2,0,0,0,55.06,49.61ZM88.52,33.7h-.28v-.28a.15.15,0,1,0-.3,0v.28h-.28a.15.15,0,0,0-.15.15.15.15,0,0,0,.15.16h.28v.27a.15.15,0,1,0,.3,0V34h.28a.16.16,0,0,0,.15-.16A.15.15,0,0,0,88.52,33.7Z" transform="translate(-0.1 -0.01)"/></g><path class="cls-11" d="M161.27,29.41a4.82,4.82,0,0,1,.77,0,3.51,3.51,0,0,1,2.71,1,4,4,0,0,1,.91,2.79c0,.2,0,.54-.08,1a14.5,14.5,0,0,1-1.56,5,7.65,7.65,0,0,1-3.75,3.42,9.48,9.48,0,0,1-4,.77,11.76,11.76,0,0,1-1.19,0A6.38,6.38,0,0,1,150.29,41a9.78,9.78,0,0,1-1.79-5.46c0-.42-.05-1.06-.05-1.91A28.1,28.1,0,0,1,149,28a14.57,14.57,0,0,1,3.44-7.1,9.29,9.29,0,0,1,6.86-3.11c2.7,0,4.63,1,5.77,3a7.42,7.42,0,0,1,.68,3.39,15.22,15.22,0,0,1-.29,3,.65.65,0,0,1-.71.59L160,28a.58.58,0,0,1-.58-.25.68.68,0,0,1-.15-.62,13.17,13.17,0,0,0,.21-2.19c0-.76-.21-1.24-.62-1.44a1.38,1.38,0,0,0-.48-.12c-.58,0-1.27.57-2.06,1.71q-1.86,3-1.86,8.91a13.11,13.11,0,0,0,.19,2.21,1.8,1.8,0,0,0,.81,1.42,2.05,2.05,0,0,0,1,.29,2.23,2.23,0,0,0,1.46-.58,3.65,3.65,0,0,0,1-1.48l-1.52.25h-.19a.65.65,0,0,1-.47-.19.71.71,0,0,1-.23-.67l.7-4.73a.7.7,0,0,1,.67-.66C159.69,29.6,160.82,29.45,161.27,29.41Zm-.86-8.9h.11l.08-.06.1-.1-.33,0v.14Zm.81.17a1.28,1.28,0,0,1-.29,0s-.1.06-.23.19l.11.12h.41l.07,0v-.08c-.1,0-.15,0-.15-.11S161.17,20.72,161.22,20.68Zm3.11.33s.07,0,.14,0l.15-.14h-.06a.3.3,0,0,0-.19,0l0,0Zm-1.81.15c-.08,0-.11,0-.11.06s.05.19.17.19h.17l0-.06a0,0,0,0,0,0,0,.22.22,0,0,0,0-.13s-.06-.09-.19-.15Zm.89,0c-.06,0-.08.08-.08.1s.06.08.19.15l0-.06v-.17S163.51,21.16,163.41,21.16Zm-2.52.62a.41.41,0,0,1,.19,0V21.7l.06-.06a.67.67,0,0,0-.29-.08c-.1,0-.15,0-.15.1Zm2.21,0v-.08l0,0,0,.14Zm-4.77.09,0-.09h-.08l0,.09Zm.29.16,0,.17H159a.7.7,0,0,0-.06-.23.2.2,0,0,1-.14,0Zm3.33.42c0,.06,0,.08.07.06a.09.09,0,0,0,.08-.1v-.11H162Zm0,.29a.29.29,0,0,0,.13.23.46.46,0,0,0,.29.1.18.18,0,0,0,.14,0h.11l0-.06a.12.12,0,0,0-.11,0c-.07,0-.1-.05-.1-.15a.1.1,0,0,1-.08-.1.07.07,0,0,0-.07-.08l-.23,0Zm-.44,0c0-.07,0-.1-.1-.1a.26.26,0,0,1-.15.06.07.07,0,0,0-.08.08c0,.06,0,.09.08.09h.21S161.47,22.78,161.47,22.7Zm-.47.42c.06-.05,0-.1-.07-.13v.13Zm1.25.52.08.06a0,0,0,0,0,0,0s0,0,0-.08,0-.07-.06-.07S162.25,23.61,162.25,23.64Zm-.44,0c0-.07-.13-.1-.38-.1h-.29a.42.42,0,0,0-.29.08,2.06,2.06,0,0,1,.25.1l.27.11.29,0A.15.15,0,0,0,161.81,23.66Zm-.23.56.08-.08V24c0-.06,0-.1-.14-.1l-.11,0h0v.15Zm1,.09a.19.19,0,0,0,.08-.17l-.08,0-.1,0h-.15Zm-1.25.43a.16.16,0,0,0,.15-.08l.18-.1a.12.12,0,0,0,.11,0v-.1l-.06-.08-.17-.07a.42.42,0,0,1-.44.25l.08.15A.15.15,0,0,0,161.37,24.74Zm-6.52-.18a.16.16,0,0,0-.06.14c0,.06.09.14.29.23l.14.06.09-.18-.38-.36S154.9,24.5,154.85,24.56Zm7.44.25c.09,0,.14,0,.14-.07s-.06-.08-.14-.08S162.25,24.81,162.29,24.81Zm-10.46.33,0,0,0,0V25a.13.13,0,0,0-.13.15A.17.17,0,0,0,151.83,25.14Zm3,.12a.4.4,0,0,0-.13.13l0,.08h.21a.87.87,0,0,1,.52-.14Zm7.12.3a.15.15,0,0,0-.1-.15c-.16,0-.23.08-.23.15l.12,0,.11,0Zm-.48,0s0,0-.08-.07a.28.28,0,0,0-.13,0c-.09,0-.14,0-.14.11Zm-1.83,1.77c-.16.08-.23.16-.23.23h.23a.36.36,0,0,0,0-.11S159.6,27.38,159.6,27.33Zm2.25,3h-.19v.09s0,0,.09,0Zm1.67.13a.38.38,0,0,0-.52.19.61.61,0,0,0,.22.06l.3-.06Zm-.11.44h-.08V31h.08Zm0,2.25,0-.29.05-.44-.15-.15a.65.65,0,0,0,.1-.31.13.13,0,0,0,0-.1l0-.34h-.1s-.07,0-.12.09l-.07.06a1,1,0,0,1,.07.41.44.44,0,0,0,0,.19v1.17s0,.08,0,.17v1.33a.17.17,0,0,0,.15.1.32.32,0,0,0,.19-.1v-.31a3.67,3.67,0,0,1-.09-.88v-.42l0-.1Zm-1,.66a.11.11,0,0,0,.06-.1l-.22,0,0,.1ZM152.56,36a.63.63,0,0,0,0-.23.6.6,0,0,1,0-.25l-.06,0h-.28a1.43,1.43,0,0,0,0,.38l0,.14h.15A.21.21,0,0,0,152.56,36Zm2.91,3.77-.06.19h.06l.09,0h.14v-.23ZM157.75,42a.22.22,0,0,1-.15,0,.24.24,0,0,0-.19.07v0l0,0,0,0h.4l.08-.08Z" transform="translate(-0.1 -0.01)"/><path class="cls-11" d="M187.85,42.64a.8.8,0,0,1-.2.54.69.69,0,0,1-.52.21h-5.61a.65.65,0,0,1-.73-.67l-.37-4.52-5.59,1.13L174,42.72a.69.69,0,0,1-.75.56l-5.46-.12a.69.69,0,0,1-.58-.27.84.84,0,0,1-.13-.69q.92-3.48,2.55-8.73c.56-1.84,1.32-4,2.27-6.33q1.29-3.29,3.48-8.4a.73.73,0,0,1,.54-.43l.79-.15c.73-.15,1.3-.25,1.69-.29a5.42,5.42,0,0,1,1.12-.09,8.09,8.09,0,0,1,1,0c1.2.1,2.15.94,2.86,2.54.22.6.48,1.45.77,2.56.32,1.33.61,2.69.89,4.06l2.77,15.5ZM176.27,19.41v-.23h-.14v.23Zm4.48,1v-.29h-.1v.29Zm-.29.64a.89.89,0,0,0,.06-.31c-.11,0-.17,0-.17,0v.21Zm-4.29-.16v.5a1,1,0,0,1,.18-.46h-.12ZM181,21a.24.24,0,0,1,.13-.08l-.42,0V21a.12.12,0,0,1,0,.11h.15S181,21.05,181,21Zm-.29.15V21l-.06-.14V21Zm.71.19c-.1,0-.19.08-.27.25l.08.08h.48l.15-.08c-.13-.07-.19-.14-.19-.21l.08-.13A1,1,0,0,1,181.46,21.31Zm-.11,1c-.11,0-.16.05-.16.14a.29.29,0,0,0,.19.06,1.33,1.33,0,0,1,.18.09c.05-.05.09-.09.09-.11l0-.08A.72.72,0,0,0,181.35,22.31Zm-3,.33,0-.13h0l-.08.09Zm.4.35h.19s0,0,.06,0l.08,0a.33.33,0,0,0-.06-.21.19.19,0,0,0-.08,0l-.06,0h-.17Zm3.23.5s-.06.06-.19.11-.08,0-.08.1,0,.06.08.11H182c.09,0,.15-.09.15-.15S182.1,23.49,182,23.49Zm-8.15,1.44c0-.05,0,0-.1,0s-.13.12-.13.15a.51.51,0,0,0,.09.25c.07.1.11.14.14.14a.69.69,0,0,0,0-.29A.57.57,0,0,0,173.83,24.93Zm2.57.54a.08.08,0,0,1,.06,0,.11.11,0,0,0,.14,0l-.18-.08s0,0,0,.08Zm-2.61,1h.15V26l-.15,0Zm4.34-.27a.46.46,0,0,0-.44.27c0,.17.09.27.16.29a.49.49,0,0,0,.36-.08l.1-.29,0-.09a.44.44,0,0,0-.06-.1Zm4,.1h.25v-.06h-.25Zm.39.61c0-.13-.07-.19-.21-.19l0,.11,0,.08ZM179.31,31c-.1-.79-.18-1.38-.27-1.77-.2-1-.35-1.82-.48-2.33l-1.81,6,2.79-.07Zm-1.58-3.58.06,0,.11-.29-.07,0Zm3.58,0,.07,0-.07-.07-.12,0Zm-4.62,2.14a1.16,1.16,0,0,0,.23-.25.61.61,0,0,0,.16-.27l.09-.29.37-.77-.19-.08-.18.14c-.1.1-.16.15-.19.15-.13.47-.19.7-.19.67-.07.18-.12.27-.14.27s0,.09-.11.14a.37.37,0,0,0-.12.25l-.25.81-.15.53a2.49,2.49,0,0,1-.33.6,1.18,1.18,0,0,0-.29.44.84.84,0,0,0-.05.23.7.7,0,0,0-.08.33,1.07,1.07,0,0,1-.21.5,2.28,2.28,0,0,0-.18.46c0,.16,0,.25.06.25a.21.21,0,0,0,.19,0l.12-.11a3.24,3.24,0,0,0,.21-.62,1.08,1.08,0,0,1,.27-.61q0-.09.21-.33l.14-.39a3,3,0,0,0,.23-.61,8.4,8.4,0,0,1,.38-1Zm5.1-.85,0,0,0,0-.27,0v.14h.23Zm.73.33-.21-.06V29l.21.09Zm-1.77.19c0,.06.06.08.1.08s.09,0,.09-.08Zm1.92,1.29c.12,0,.18,0,.18-.14Zm-2.36.13s0-.07-.08-.13l-.15,0v.17Zm1.34.35c0-.19-.19-.31-.46-.35-.08,0-.11.08-.11.21h.23c-.12.07-.14.16,0,.27h.33V31Zm.95-.21c.16,0,.23,0,.23-.08a.08.08,0,0,1-.06,0,.08.08,0,0,1,0,0h-.08s-.07,0-.07.06Zm-.47,0s.07.07.1.07l.08-.11s-.08,0-.23,0Zm.47.4a.48.48,0,0,0,.23.08.7.7,0,0,0,.36-.12.43.43,0,0,0-.29-.15h-.3Zm-1,.44c.1,0,.16,0,.19,0H182v-.19l-.12,0a.17.17,0,0,0-.11,0C181.67,31.41,181.6,31.48,181.6,31.58Zm-1.47-.11v.09h.29v-.09Zm3.25.15c0-.1-.07-.15-.11-.15h-.37l-.3.21c-.07,0-.1.07-.1.08a1.86,1.86,0,0,0,.33.67h.5l.17,0a.34.34,0,0,0-.27-.19c-.1,0-.22-.07-.38-.23a.74.74,0,0,0,.32-.14C183.18,31.78,183.25,31.7,183.38,31.62Zm-9,0-.08.33a.23.23,0,0,0,.13.23.82.82,0,0,0,.1-.29v-.27Zm7.34.18,0-.06h-.27v.15l.18.14v0l.09,0h.06Zm.44.19a0,0,0,0,1,0,0l0,0H182l.06.46a1,1,0,0,0,.15-.38Zm-.9.19a.23.23,0,0,0-.17,0l-.12,0,.1.19a.46.46,0,0,1,.23,0l.25,0a.3.3,0,0,0,.17,0c.07,0,.1-.08.1-.14Zm-.38.42,0,.1.07,0,0-.14Zm.53.5s0-.05,0-.11l-.23,0-.06.08,0,.07.27.08S181.36,33.06,181.38,33.06Zm-.59,0c.1,0,.12,0,.06-.07Zm2.06.41s0-.07-.1-.14l-.1,0s-.05,0-.05,0l.23.08Zm-.33.52a.37.37,0,0,1-.06-.23.4.4,0,0,1-.08-.2.8.8,0,0,0-.59-.19s0,.06.11.06.18.14.27.33V34Zm-2-.37v.14h.13v-.14Zm3.48.44v0l-.21,0v.07Zm-2.66.18h.14v-.18h-.14Zm-.82.15v-.06h-.1v.06Zm-1.39.12v.07h.18v-.07Zm1,.59a.35.35,0,0,0,0-.19.58.58,0,0,0-.27.12H180Zm1.22.08-.18.19a.75.75,0,0,0,.35.1c.18-.12.27-.22.27-.29s0-.07-.1-.15-.13,0-.13-.08Zm.78,1h.18v-.06h-.18Zm-.48,0a.34.34,0,0,0,.2.31V36.2Zm1.43.27a.47.47,0,0,0,.09.21.31.31,0,0,0,.25.13c.12,0,.19,0,.23-.05l.2,0a.09.09,0,0,0-.1-.06l-.15-.13s0-.12,0-.33c0,.12-.09.17-.18.17Zm-8.29,0v.19h.42v-.19Zm-.48.69a.62.62,0,0,1-.06-.21,1.85,1.85,0,0,0-.46-.18.37.37,0,0,0-.29.12.28.28,0,0,0-.08.17.38.38,0,0,0,.14.25.6.6,0,0,0,.36.12.13.13,0,0,0,.1,0h.38Zm6.25-.39V37h.13v-.14Zm4.19.1v-.06h-.15v.06ZM181,37c.09,0,.15.06.15.11h.37V37Zm-1.81,0L179,37l0,.07.13,0Zm6.16,5.07a.26.26,0,0,0,.19-.07l-.29-1.79-.15-.19-.08-.16c0-.09.06-.17.19-.27-.23-.13-.33-.24-.29-.34A1.46,1.46,0,0,0,185,39a.9.9,0,0,0-.17-.48.6.6,0,0,1-.1-.27c0-.09,0-.14.1-.14s0,0,0-.11a.93.93,0,0,0-.1-.37l-.25.23-.27.18-.1-.08v-.38c0-.1.1-.16.33-.16l.14.1v-.29a.79.79,0,0,0-.29-.12A.81.81,0,0,0,184,37a1.08,1.08,0,0,0-.46.13c-.16.08-.25.18-.25.27s0,.07.09.12l.14.11c-.07.07-.07.15,0,.25l.15.12a.08.08,0,0,1,.06,0l0,0a.53.53,0,0,1-.27.08c-.22,0-.33.06-.33.19l-.06.25a.12.12,0,0,1,.14,0c.07,0,.09.06.06.1s0,.08-.06.08,0,0,0,.05a.18.18,0,0,1,0,.1l-.06.15v.33a1.71,1.71,0,0,0,.37.19c.23.1.24.19,0,.29a1.62,1.62,0,0,0,.46,0,.41.41,0,0,0,.19,0h.21v.52h0v0h0l.11.1a.93.93,0,0,0,.1.13s0,.06.08.06l.11.11,0,.33a.62.62,0,0,0,.25.31.36.36,0,0,1,0,.11v.08a.51.51,0,0,0,.15.23C185.22,42,185.29,42.06,185.33,42.06ZM171.4,37.62c.06-.07,0-.12-.13-.15v.06Zm1.58.58c.05,0,0-.1,0-.19a.33.33,0,0,0-.06.19s0,0,.06,0A0,0,0,0,0,173,38.2Zm9.85.38s0,0,0-.11h-.25c0,.08,0,.11.05.11l.1.1a.08.08,0,0,1,0,0Zm-10.73.29.07,0v-.19c0-.08-.08-.13-.23-.13l-.06,0,0,0,0,0v.14Zm9-.29v.14h.27v-.14ZM182,39a.12.12,0,0,0-.1-.12l-.13,0V39Zm-10.08.46s0,0,.06-.08l.1-.06.25-.09V39.1l-.1-.09-.15-.1a.61.61,0,0,1-.6.33.27.27,0,0,0,.1.19.38.38,0,0,0,.23.1A.17.17,0,0,0,171.94,39.47Zm9.62-.19a.3.3,0,0,1-.18-.08l0,.27.37-.08Zm-8.14.92a.14.14,0,0,0,.08-.14l-.08-.07s-.07,0-.07,0h-.08l-.14.05.14.1Zm-1.54.23a.24.24,0,0,1-.13,0,1,1,0,0,0-.15-.11.14.14,0,0,0-.16.15s.08,0,.21,0Zm.43.15c.09-.07.13-.11.15-.11a.2.2,0,0,0-.15-.19c-.14.08-.21.12-.21.15Zm9.92,0c0-.06,0-.13-.15-.23l-.18.12-.07.11Zm.37,1.73h0l0,0a.75.75,0,0,1-.13-.37h-.35a.92.92,0,0,0,.16.27c.09.08.16.16.23.21Z" transform="translate(-0.1 -0.01)"/><path class="cls-11" d="M189.29,42.62a.84.84,0,0,0,.21.56.73.73,0,0,0,.54.21h3.84c.52,0,1.35,0,2.48-.15a9.89,9.89,0,0,0,5.52-2.43,17,17,0,0,0,2.83-3.42,16.21,16.21,0,0,0,1.94-4.58,22,22,0,0,0,.66-5.15,16.73,16.73,0,0,0-.66-4.67,7.61,7.61,0,0,0-2.27-3.56,7.14,7.14,0,0,0-4-1.73c-.65,0-1.12-.06-1.44-.06a16.91,16.91,0,0,0-4.06.48l-3.71.89a.73.73,0,0,0-.59.69Zm11.11-23.5a.6.6,0,0,1-.25,0,.5.5,0,0,1,.25-.25l.08,0,.15,0V19s0,.06,0,.06v.09Zm-7.73.37,0,0-.07-.06v0Zm3.35-.08a.88.88,0,0,1,0,.29v.13c-.21,0-.31,0-.31-.13a1,1,0,0,1,.12-.29Zm4.46.29-.33.15a.3.3,0,0,1-.13-.25c0-.13,0-.19.13-.19h.25a.21.21,0,0,0,0,.15A.23.23,0,0,1,200.48,19.7Zm-6.6.23-.13,0a1.48,1.48,0,0,1-.35,0v-.08s0,0,0-.06v0h.06l.08,0A.52.52,0,0,1,193.88,19.93Zm4.52.77-.07.31-.41,0,.08-.27Zm5.81,2.71c0,.2-.18.29-.52.29s-.33-.07-.33-.21l.08-.16.19-.15a1.4,1.4,0,0,0,.54-.1v.18Zm-1.9-.1h.09v.14h-.09Zm-4.31.5a4.5,4.5,0,0,1,.92-.11,1.73,1.73,0,0,1,1,.29,2.13,2.13,0,0,1,.69.9,14.88,14.88,0,0,1,.43,1.54,7.19,7.19,0,0,1,.15,1.52l0,.75.14-.19c.34.08.5.16.5.25s-.12.27-.37.27a.21.21,0,0,1-.19-.1s-.06,0-.1-.12a20,20,0,0,1-.52,2.7c-.21.64-.54,1.44-1,2.38a5.29,5.29,0,0,1-1.63,2,6.35,6.35,0,0,1-2.64,1l.08-1.52h0a.42.42,0,0,1-.38-.21A.83.83,0,0,1,195,35v-.19s.08-.09.25-.2h.29l.57-8.71q-.15-.06-.15-.15a3.49,3.49,0,0,0-.27-.58,1.05,1.05,0,0,0,.46-.31h0l0-.67Zm-6.94,3.66s0,0-.06,0,0,0-.08,0l.41-3.25s.07.08.13.2.09.22.06.27-.06.28-.1.44a1.4,1.4,0,0,1-.09.34l0,.37-.06,1v.25Zm12.82-2.87a.09.09,0,0,0-.09-.09l.17-.06a.31.31,0,0,1,.21.06l-.21.19Zm-2.38.18s0,0,0,0,0,.08-.06.08a.53.53,0,0,1-.23-.08A.19.19,0,0,1,201.5,24.78Zm2.9.63a.13.13,0,0,1-.15-.15.22.22,0,0,1,.21-.14.61.61,0,0,0,.12.14Zm-1.19.15q0,.11-.15.18a.35.35,0,0,1-.23,0c0-.17-.13-.3-.39-.37.07-.05.1-.09.1-.1a.22.22,0,0,1,.15-.09h.14c.06,0,.09.06.09.11l.06.08s.05.06.15.06S203.21,25.5,203.21,25.56Zm-.81-.15a.34.34,0,0,0-.13.1s0,0-.06,0H202l0,0s0,0,0,0,0,0,0,0,.06-.14.19-.14h.2Zm2.06.44c-.12,0-.17,0-.17-.11a.17.17,0,0,1,.11-.18l.06.14Zm.12,1.29-.18,0-.07-.06a.12.12,0,0,1,0-.07c0-.06.05-.1.15-.1a.38.38,0,0,1,.23,0v.19Zm-2.85.37c-.22-.06-.33-.13-.33-.18s0-.13-.09-.25l.17.06a.32.32,0,0,0,.25-.11l.08,0,0,.06v.31Zm1.33-.18-.14.14c-.16.09-.23.05-.23-.1s.05-.12.14-.19l.15,0,.13,0Zm2.3.37c-.06,0-.14,0-.23-.1l0,0h0a.22.22,0,0,1,.15,0Zm-2.73.92c0,.06,0,.1-.13.14h-.1a.17.17,0,0,1-.15,0,.39.39,0,0,1-.29-.19.82.82,0,0,1-.13-.25c0-.05,0-.09,0-.09s0,0,0-.1,0-.06,0-.06a.72.72,0,0,1-.15-.13l0,0,0,0h.06a.39.39,0,0,1,.38.23.13.13,0,0,1,0,.1.11.11,0,0,0,0,.09l0,.1Zm.73.46-.05-.13a.83.83,0,0,1,.32-.06V29s0,0,0,0v.11l-.23,0Zm-.34.33v0l.11,0,0,0Zm-.23.54h-.16l0-.06a.38.38,0,0,1,0-.23l.15,0a.18.18,0,0,1,.14,0s0,.06.09.1v.17Zm.38.15a.21.21,0,0,1,0,.27l-.15-.19.08,0Zm-.73.23c0,.07,0,.1-.13.1s-.1,0-.1,0l-.06,0,.06-.09h.19S202.41,30.33,202.44,30.33Zm3,.33c-.13,0-.19,0-.19,0l.06-.06C205.4,30.56,205.44,30.59,205.44,30.66Zm-13.86.23h-.43V30.6A1.86,1.86,0,0,1,191.58,30.89Zm12,.1-.25,0c-.11,0-.16,0-.16,0a.31.31,0,0,0,0-.18.15.15,0,0,1,.1-.15h.15l.08.1c0,.09,0,.13.11.13V31Zm-.47,0-.05,0h0l0,0h-.06a.28.28,0,0,1-.13-.21H203l.09,0s0,0,0,.08v0Zm1.06,1.15s0,.1-.11.19a.26.26,0,0,0-.08.21h-.1c-.17-.1-.25-.18-.25-.25v-.48c0-.05,0-.09,0-.09a.17.17,0,0,0,.08-.14.25.25,0,0,0,0-.11.84.84,0,0,0-.06-.18s.06,0,.14,0h0s0,0,.09,0h0a6.42,6.42,0,0,0,.1.77l0,0a.1.1,0,0,0,.07,0S204.17,32.15,204.17,32.18Zm.66-.62a.42.42,0,0,1-.14.1l-.08,0a.08.08,0,0,1-.07,0,.39.39,0,0,1-.18-.08v-.25l0,0,0,0h.06a.41.41,0,0,1,.27.08A.17.17,0,0,1,204.83,31.56Zm-.52.43,0,0v0l0,0v0l-.08-.07Zm-1.48.59s-.06,0-.06-.11a.3.3,0,0,1,0-.1s0,0,0-.09l.09,0c.12.06.19.12.19.17s0,0-.05,0v0a.21.21,0,0,0,.15,0l0,.07s0,0,0,.08h-.37Zm1.13.12H204v.21H204Zm-1.5.21a.42.42,0,0,1-.25.15l-.06-.11v-.06l.06,0,.1,0Zm.6.65a.29.29,0,0,0-.29.14.26.26,0,0,1-.19,0,.17.17,0,0,1-.08-.12.35.35,0,0,1,0-.17.37.37,0,0,1,.11-.15s0,0,.18.15Zm-8.95.68-.15,0,0-.14s0,0,0-.11h.23a.22.22,0,0,1,.14.19Zm7.7,0a.36.36,0,0,1,0,.15.05.05,0,0,1-.06,0l0,0Zm-.33.11,0,0,0,0a.29.29,0,0,1-.15.06v-.15A.41.41,0,0,1,201.48,34.33Zm1.81.56c-.21,0-.31-.07-.31-.23s0-.11.13-.15h.29c.06,0,.1,0,.1.07l.08.12v.11Zm.48,1v-.09H204v.15h-.25Zm-13.35.25a.17.17,0,0,1-.13,0c0-.05,0-.07.09-.07v0s0,0,0,0ZM194.11,39v-.14c.17,0,.22.06.14.18Zm-3.05.38,0,0-.18,0v-.09Zm1,.25-.39,0s0-.09,0-.09v-.06c0-.15.09-.23.29-.23a.42.42,0,0,1,.21.11.23.23,0,0,1,.12.18Zm-.48.89a.82.82,0,0,1-.14.19.56.56,0,0,0-.21.29.46.46,0,0,1-.19-.29l-.12-.46,0-.1a.16.16,0,0,0,0-.11,1.11,1.11,0,0,0,.29,0h.33a.23.23,0,0,0,0,.23Zm5.86.92h-.11l.11,0,.08,0s.06,0,.06.1Zm-6,.29s-.06,0-.11.08-.09.05-.18.05a.38.38,0,0,1-.21-.05c-.06,0-.08,0-.08-.08a.39.39,0,0,0,.18,0,.34.34,0,0,1,.19,0Z" transform="translate(-0.1 -0.01)"/><path class="cls-11" d="M221.31,29.41a4.9,4.9,0,0,1,.77,0,3.51,3.51,0,0,1,2.71,1,3.93,3.93,0,0,1,.92,2.79,10.21,10.21,0,0,1-.09,1,14.08,14.08,0,0,1-1.56,5,7.65,7.65,0,0,1-3.75,3.42,9.42,9.42,0,0,1-4,.77,11.54,11.54,0,0,1-1.18,0A6.42,6.42,0,0,1,210.33,41a9.78,9.78,0,0,1-1.79-5.46c0-.42,0-1.06,0-1.91A28.1,28.1,0,0,1,209,28a14.4,14.4,0,0,1,3.44-7.1,9.28,9.28,0,0,1,6.85-3.11q4.06,0,5.77,3a7.41,7.41,0,0,1,.69,3.39,16,16,0,0,1-.29,3,.66.66,0,0,1-.71.59L220,28a.58.58,0,0,1-.58-.25.66.66,0,0,1-.15-.62,14.34,14.34,0,0,0,.21-2.19q0-1.14-.63-1.44a1.33,1.33,0,0,0-.48-.12c-.58,0-1.27.57-2.06,1.71-1.24,2-1.85,5-1.85,8.91a14.2,14.2,0,0,0,.18,2.21,1.8,1.8,0,0,0,.82,1.42,2,2,0,0,0,1,.29,2.23,2.23,0,0,0,1.46-.58,3.75,3.75,0,0,0,1-1.48l-1.52.25h-.19a.67.67,0,0,1-.48-.19.76.76,0,0,1-.23-.67l.71-4.73a.69.69,0,0,1,.67-.66C219.74,29.6,220.86,29.45,221.31,29.41Zm-.85-8.9h.1l.08-.06.11-.1-.33,0v.14Zm.81.17a1.28,1.28,0,0,1-.29,0s-.11.06-.23.19l.1.12h.42l.06,0v-.08c-.1,0-.14,0-.14-.11S221.21,20.72,221.27,20.68Zm3.1.33a.3.3,0,0,0,.15,0l.15-.14h-.07a.26.26,0,0,0-.18,0l0,0Zm-1.81.15c-.07,0-.1,0-.1.06s0,.19.16.19h.17l0-.06s0,0,0,0a.17.17,0,0,0,0-.13s-.06-.09-.18-.15Zm.9,0c-.06,0-.09.08-.09.1s.07.08.19.15l0-.06v-.17S223.55,21.16,223.46,21.16Zm-2.52.62a.37.37,0,0,1,.18,0V21.7l.07-.06a.67.67,0,0,0-.3-.08c-.09,0-.14,0-.14.1Zm2.2,0v-.08l0,0,0,.14Zm-4.77.09,0-.09h-.09l0,.09Zm.3.16,0,.17H219a.7.7,0,0,0-.06-.23.22.22,0,0,1-.15,0Zm3.33.42q0,.09.06.06a.09.09,0,0,0,.08-.1v-.11H222Zm0,.29a.31.31,0,0,0,.12.23.48.48,0,0,0,.29.1.21.21,0,0,0,.15,0h.1s0,0,0-.06-.05,0-.1,0-.11-.05-.11-.15a.11.11,0,0,1-.08-.1c0-.05,0-.08-.06-.08l-.23,0Zm-.44,0a.09.09,0,0,0-.1-.1.29.29,0,0,1-.15.06c-.06,0-.08,0-.08.08s0,.09.08.09h.21S221.52,22.78,221.52,22.7Zm-.48.42c.07-.05.05-.1-.06-.13v.13Zm1.25.52.08.06s0,0,0,0,0,0,0-.08,0-.07-.07-.07S222.29,23.61,222.29,23.64Zm-.44,0c0-.07-.12-.1-.37-.1h-.29a.47.47,0,0,0-.3.08,1.27,1.27,0,0,1,.25.1l.28.11.29,0A.14.14,0,0,0,221.85,23.66Zm-.23.56.09-.08V24c0-.06-.06-.1-.15-.1l-.1,0h0v.15Zm1,.09a.19.19,0,0,0,.08-.17l-.08,0-.11,0h-.14A1.14,1.14,0,0,0,222.67,24.31Zm-1.25.43a.14.14,0,0,0,.14-.08l.19-.1a.11.11,0,0,0,.1,0v-.1l-.06-.08-.17-.07a.42.42,0,0,1-.43.25l.08.15A.14.14,0,0,0,221.42,24.74Zm-6.53-.18a.16.16,0,0,0-.06.14c0,.06.1.14.29.23l.15.06.08-.18-.37-.36S215,24.5,214.89,24.56Zm7.44.25c.1,0,.15,0,.15-.07s-.06-.08-.15-.08S222.29,24.81,222.33,24.81Zm-10.46.33,0,0,0,0V25c-.08,0-.12.06-.12.15A.16.16,0,0,0,211.87,25.14Zm3,.12a.29.29,0,0,0-.12.13.17.17,0,0,0,0,.08h.2a.9.9,0,0,1,.53-.14Zm7.13.3a.16.16,0,0,0-.11-.15c-.15,0-.23.08-.23.15l.13,0,.1,0C221.9,25.59,221.94,25.56,222,25.56Zm-.48,0s0,0-.09-.07a.28.28,0,0,0-.12,0c-.1,0-.15,0-.15.11Zm-1.84,1.77c-.15.08-.22.16-.22.23h.22a.35.35,0,0,0,0-.11A.19.19,0,0,1,219.64,27.33Zm2.25,3h-.18v.09s0,0,.08,0Zm1.67.13s-.09,0-.19,0a.32.32,0,0,0-.33.23.6.6,0,0,0,.23.06l.29-.06Zm-.1.44h-.09V31h.09Zm0,2.25,0-.29,0-.44-.14-.15a.78.78,0,0,0,.1-.31.18.18,0,0,0,0-.1l0-.34h-.1s-.08,0-.13.09l-.06.06c.07.25.09.39.06.41a.47.47,0,0,0,0,.19v1.17s0,.08,0,.17v1.33a.17.17,0,0,0,.14.1.27.27,0,0,0,.19-.1v-.31a3.72,3.72,0,0,1-.08-.88v-.42l0-.1Zm-1,.66a.11.11,0,0,0,.06-.1l-.23,0,0,.1ZM212.6,36a.47.47,0,0,0,0-.23.6.6,0,0,1,0-.25l-.06,0h-.27a1.06,1.06,0,0,0,0,.38l0,.14h.15A.19.19,0,0,0,212.6,36Zm2.92,3.77-.06.19h.06l.08,0h.15v-.23ZM217.79,42a.21.21,0,0,1-.15,0,.21.21,0,0,0-.18.07v0l0,0,0,0h.39l.09-.08Z" transform="translate(-0.1 -0.01)"/><path class="cls-11" d="M244.27,17.6a.78.78,0,0,1,.59.23.71.71,0,0,1,.23.54L245,22.78c0,.48-.29.72-.71.73L234.11,24.6l-.27,3.06,7.62-.4v3.63h.15V27.26a.81.81,0,0,1,.54.23.63.63,0,0,1,.25.5v3.86a.68.68,0,0,1-.65.73l-8.1,1.08-.19,3.06,9.9-.29a.71.71,0,0,1,.54.23.68.68,0,0,1,.23.52v4.65a.67.67,0,0,1-.71.75l-15.56.81a.78.78,0,0,1-.56-.21.68.68,0,0,1-.23-.56q.08-5.48.33-11.4.27-5.43.94-12.25a.67.67,0,0,1,.73-.66Zm-10.54.81h.07v-.1h-.07Zm2.4.23a.1.1,0,0,0,0,.06h.1C236.15,18.7,236.13,18.68,236.13,18.64Zm.71.62a.23.23,0,0,0,.08-.14c0-.1-.08-.15-.23-.15a.36.36,0,0,0-.33.15l-.11.14c.07-.05.11-.1.11-.14l.19,0c.15,0,.22.09.22.18v.15A.33.33,0,0,1,236.84,19.26ZM242.4,19h-.08v.11h.08Zm-10.52.21h.77v-.1h-.77Zm2.67-.1H234v0H234c-.12,0-.19.08-.19.1H234l0,0h.48Zm-1.23.14h.12v-.08h-.12Zm6.14,0h-.29v.15h.29Zm-4.39.15c-.06,0-.09.06-.09.19l.15-.15C235.21,19.38,235.19,19.37,235.07,19.41Zm2.43.1h-.14v.09h.14Zm-5.95.65,0,.15v.06h.14a.38.38,0,0,1,.09-.11l.06-.08Zm4.52.52c-.13-.05-.19-.11-.19-.17v0l.19-.18-.15.06h-.08l-.07,0s0,0,0,0h-.08a.63.63,0,0,0-.29.29l.08.08h.44s0,0,0,0l0,0h0Zm1.25.1h0l0,0,0-.13h-.12Zm-2.11.25-.08-.2c-.2.07-.29.14-.29.2s.13,0,.14,0Zm1.63.32c0-.05-.07-.13-.19-.23l-.1.23Zm1.52,0a.38.38,0,0,0-.09-.11l-.06-.08c-.2.08-.29.16-.29.23Zm-2.48,0a1,1,0,0,0-.33-.1c-.13,0-.19.06-.19.18l.19.11.1,0h0c.05,0,.08,0,.08-.13Zm1.44.29q.08.09.18,0a.24.24,0,0,0-.14-.25l-.15,0-.14,0,.06.19Zm-7.77-.1h-.05l-.06,0,.06,0Zm6.89.33c.07,0,.11-.05.11-.15s-.07-.14-.19-.14l-.09,0h0l0,0a.22.22,0,0,0-.08.15l0,.08Zm5.5-.27h-.06v.19h.06Zm-5.58,1.83h-.09v.11h.09Zm-3,.11s-.06,0-.06.1h.06l0,0S233.36,23.64,233.36,23.6Zm-.21,1.81-.08.06.18,0s0-.08,0-.18S233.19,25.36,233.15,25.41Zm.17.73,0,0-.19,0v0Zm.23,1.48h.18v-.17h-.18Zm.1.5a.21.21,0,0,1-.15,0l-.14,0,0,0c-.08,0-.11.07-.11.14s.1.19.29.19.13,0,.15,0Zm2.81.21h0v0Zm5.29.48a.32.32,0,0,1,.19,0l.19,0,.14-.19v-.29a.62.62,0,0,0-.12-.08.41.41,0,0,0-.17,0l-.23.15Zm-5.1-.44.08,0h-.08Zm-1,.37.19.15a.2.2,0,0,0,.08-.13.14.14,0,0,0,0-.14Zm1,0,.15.09.08-.23h-.15Zm-2.19.27c.15-.05.15-.13,0-.22Zm-.54.23.15.15.18,0,.05,0h.06v-.19a.28.28,0,0,1-.23-.08l-.06,0,0,0,0,0Zm1.77,0,.08.15H236l-.1-.09-.15-.1Zm-2.44.11a.34.34,0,0,0-.16-.07l-.17,0a.21.21,0,0,0,.1.15.66.66,0,0,0,.34.06h.1v-.1Zm2.36.43h.31s.06,0,.06-.1v-.15h-.29l0,.15ZM233,30a.12.12,0,0,0,0,.07s0,0,.07,0l.1,0-.06,0h0C233,30,233,30,233,30Zm-.43.71a.36.36,0,0,0,.27-.08.27.27,0,0,1-.17-.06l0,0h-.19a.33.33,0,0,0-.12.23Zm.52.19a2.45,2.45,0,0,1-.52-.08l-.11.08.11.14q.07-.18.18-.12Zm-1.59,0a.13.13,0,0,0-.12.14l.12.07.15,0a.13.13,0,0,1,.1-.13l-.1,0Zm10.07,1,.14-.19.06-.14-.06-.28a.88.88,0,0,1-.14-.33ZM233,31.56a1.06,1.06,0,0,1,.23-.38l-.14,0H233a.4.4,0,0,0-.23.08l-.29.11.19.08.14.06c-.05.13-.07.22,0,.27l.34-.08Zm-1-.09c.09.06.15.06.19,0l0,0-.06,0-.09,0Zm1.19,0a.38.38,0,0,0,.09.17l.16,0,.27-.06-.1-.13Zm-1.1.13c-.16.07-.2.13-.13.18l0,.15a.32.32,0,0,0,.23-.08A.31.31,0,0,0,232.11,31.56Zm1.66.35h-.18c-.09,0-.13,0-.13.08s0,.09-.06.09,0-.2-.1-.23h-.23s0,.06.08.06l.1.12-.27.11-.16.14s0,0,.08,0,.07,0,.08,0h.32a1.39,1.39,0,0,0,.47-.15Zm-1.33.17a.25.25,0,0,0-.21.12.53.53,0,0,0-.06.23v.19a.54.54,0,0,0,.33.14h.13l.1-.06v-.48l-.14-.12Zm-.6.16a.2.2,0,0,0-.11.07s-.08.07-.08.1a.61.61,0,0,0,.27,0Zm8.23.23h.43v-.1h-.43Zm-6.48.11s.06,0,.06-.11h-.21l-.08.11Zm-2,0c-.13,0-.19.08-.19.14h.19S231.57,32.7,231.55,32.62Zm1.7.23a.39.39,0,0,0,.21,0,.21.21,0,0,0-.14-.19Zm-1.08,0c-.1.1-.15.16-.15.21l.34,0,.08-.15c-.06,0-.08-.07-.08-.1Zm.65.29,0-.23q-.18,0-.18.15v.16Zm.68.08s0-.08-.06-.08l-.08-.08a.78.78,0,0,1-.34,0l-.14,0-.06,0,.16.15.27-.09Zm-.58.36.1-.07-.29-.08v.15Zm-.27,0a.65.65,0,0,0-.29-.07l.08.15A.27.27,0,0,0,232.65,33.58Zm-.44.23s0,.06-.06.1l.4,0s.08,0,.08-.1Zm-.37.25a.26.26,0,0,0,.23.12l-.15-.29-.27,0Zm.64.33c0-.09-.07-.15,0-.17s0-.13,0-.16l-.12.12s0,0,0,.06v.15Zm.73-.06c.13,0,.19,0,.19-.15h-.19Zm-2-.11c-.07,0-.1.05-.1.11l.21.06a.17.17,0,0,1,0-.11l0,0Zm1.05.25v.15h.1v-.15Zm.18.09s0,.06,0,.06l.05.08.27-.08s0,0,0-.06v-.05l-.12,0a.09.09,0,0,1-.06,0Zm.59.33h-.23V35h.23ZM231,35.1a.16.16,0,0,0,0,.23c.13-.06.19-.13.19-.23Zm.77.27.09,0,.1,0,0-.19h-.06l0,0,0,0h-.08v.15ZM231,36c.1,0,.16,0,.19,0v0l.06-.06-.1-.09-.19.09Zm1.06-.08h-.18v0l.14,0Zm-.58.46a.27.27,0,0,0,.19.06v-.21A.21.21,0,0,0,231.44,36.33Zm3.25,1.39H235v-.06h-.29Zm1.48,0a1.34,1.34,0,0,1-.19.11c.09,0,.13.08.13.14h.16c.06,0,.09-.07.09-.1l0-.06-.08-.19s0,0,0,.06S236.22,37.76,236.17,37.76Zm2.1.15h.09l0-.06,0,0Zm-3.14-.06h-.21v.06h.21Zm1.71.29.14,0s0,0,0,0l-.06-.07Zm-2.15.06.08.08c.13-.05.15-.1.07-.14s-.07,0-.07,0h-.08Zm1.29.08a.22.22,0,0,0-.18-.08l.08.27,0,0,0,0s0,0,0-.08S236,38.33,236,38.28Zm.71.07c-.12,0-.19.12-.19.18h.19a.13.13,0,0,1,0-.1Zm-5.25.56v.23l.06-.08.15-.15Zm.73,0c0,.07.06.1.19.1V39a0,0,0,0,1,0,0Zm1.94.1.06.17h.08l-.12-.17Zm3.54.13a.17.17,0,0,0,.19.19l.08-.13,0-.06Zm-1.29.06h-.09l0,.13h.11Zm-1.19.23,0,0,0,0-.08-.06h-.06l.06.14,0,0Zm-3.21.42h-.31V40H232Zm-3.41.81c0-.13,0-.2.12-.23h-.48v.23ZM242,40.58l.44.08v-.13l-.37-.1ZM231,40.49h-.41v.17H231Zm2.44.17v.17h.29v-.17Zm2,.15a.6.6,0,0,0,0,.29l0,.18h.5l.08-.14a.19.19,0,0,0,0-.15l-.19-.18Zm-5.71.18h.42v-.16h-.42Zm1.63.77a.31.31,0,0,0,.19-.2.86.86,0,0,0,.08-.36.43.43,0,0,0-.13-.33.93.93,0,0,0-.29.12A1.89,1.89,0,0,1,231.36,41.76Zm-3.69-.52c0,.08.07.11.19.11a.39.39,0,0,0,.25-.11Zm1.54.15h-.06v-.15h-.33v.15h.33v.14h.06Zm3.86.08-.42,0-.21.09-.19,0a1.31,1.31,0,0,1,.15.12.44.44,0,0,1,.1.17,1.92,1.92,0,0,0,.38-.29Zm-2.52.34a.49.49,0,0,0,.08-.23H230v.33a1.46,1.46,0,0,1,.5.08Zm6.77-.05h.27v-.08h-.27Zm4.7.48c0,.08,0,.11-.08.11a.3.3,0,0,0,.23-.11Zm-11.91.07h-.29v.16h.29Z" transform="translate(-0.1 -0.01)"/><path class="cls-11" d="M263.73,23.41a.7.7,0,0,0,.71-.75l.11-4.17a.79.79,0,0,0-.23-.56.71.71,0,0,0-.54-.23L247.15,18a.72.72,0,0,0-.73.75l-.23,5.59a.77.77,0,0,0,.27.6.76.76,0,0,0,.63.15l5.1-1L252,32.08a.17.17,0,0,1,.23,0v.06s0,0-.08,0L252,32.1l-.14,4.56h0l0,0,0,0-.15,5.92v.1a.62.62,0,0,0,.21.46.76.76,0,0,0,.54.21l5-.11a.69.69,0,0,0,.71-.75l0-.25h0a.37.37,0,0,1-.23-.12.42.42,0,0,1-.1-.21l.1-.23a.28.28,0,0,0,.13-.23.54.54,0,0,0-.13-.14.27.27,0,0,1-.1-.19.45.45,0,0,1,.1-.21.78.78,0,0,0,0-.29.94.94,0,0,1,0-.27l.06-.06.06,0,.07-.07c-.12-.05-.17-.1-.17-.14a.31.31,0,0,1-.06-.19c.15,0,.23-.1.23-.19s-.07-.11-.19-.21.07-.09.21-.12.19-.11.12-.19l-.12-.06a.38.38,0,0,1-.19,0,.62.62,0,0,1,.08-.23l.09-.15v-.06l-.13,0-.1,0-.09,0s-.06,0-.06-.08v-.07h0v0l0,0a.68.68,0,0,1,.23,0,.18.18,0,0,0,.19-.15l.11.15,0-.23h-.23c-.13,0-.16-.09-.11-.29a.17.17,0,0,0,0-.23l-.08-.1,0-.15s0-.07.1-.15a.28.28,0,0,0,.11-.18l-.06-.34-.13-.37,0-.11h0l.09-.08v-.1a.41.41,0,0,0-.13-.29l.19-.09a.24.24,0,0,0,.15-.06h.12l0-.9h0a1,1,0,0,1-.27-.1.32.32,0,0,1,.29-.19l.31-10.87Zm-14.5-1.33V22h.23v.11Zm3.25.14v-.14h.19v.14Zm-4.14.38a.85.85,0,0,0-.38-.09c-.07-.09,0-.21.09-.35h.23l.2.15v.14Zm3.42-.34c0,.08,0,.11,0,.11h-.08l0,0-.17,0v-.21h.32Zm-5.38.15v-.1h.33v.1Zm3,0-.15,0-.08.08c-.12,0-.14.1-.06.17-.1.08-.18.1-.23,0a.37.37,0,0,1-.13,0l-.1-.08a1.29,1.29,0,0,0,.23-.19.39.39,0,0,1,.29-.1h.08Zm-1.29.37V22.6l.48.06Zm1.37.52c-.18,0-.28-.06-.29-.12s0-.15.13-.25h.08l.08,0h.15v.25Zm2.88-.27a.34.34,0,0,1-.11.27.28.28,0,0,1-.14-.23h.1Zm-4.11.38v-.15h.23v.15Zm2.55,0c0,.1-.14.14-.36.1-.06,0-.1,0-.12,0h-.11a.63.63,0,0,0-.23,0,.38.38,0,0,1,.32-.23l.5.09Zm2,10.69-.06,0,.1-.07.06-.08.09.15-.19.08Zm4.19.27-.11.06,0,0,0,0-.08,0v-.06Zm-4,1.25a1,1,0,0,1-.09.29.43.43,0,0,1-.14.23.23.23,0,0,1,.08.19.1.1,0,0,0,0,.12,1.05,1.05,0,0,1,0,.13,2.52,2.52,0,0,0,.06.37l.13.23c0,.1-.07.18-.19.25l.06,0c0,.1,0,.21,0,.34a.88.88,0,0,1,0,.33.21.21,0,0,0,.13.29c-.09.1-.16.15-.23.15l.1.1a.08.08,0,0,1,.09.08l0,.05a.13.13,0,0,1-.1,0l-.27,0-.15-.09a.12.12,0,0,1-.1,0l0-.4.06-.81q.09-.28,0-.33v-.27a.5.5,0,0,0,.15-.34l-.11-.14s-.07,0-.1-.11a.18.18,0,0,1,.06-.1l.13-.12a.19.19,0,0,1-.09-.15s0-.06.05-.06l0-.13a.37.37,0,0,1,0-.21,1.36,1.36,0,0,1,.29-.7c0,.15,0,.21.1.18s.17.08.17.15l0,.14Zm5.33.71a0,0,0,0,1,0,0v.06h0Zm-.75,1.43c0,.06,0,.1-.06.11l-.15,0v-.13s.05,0,.1,0Zm-4.69,2.73c-.12.06-.17.12-.12.19a.68.68,0,0,1-.11.33l-.19.05a.84.84,0,0,1-.18-.34s-.07-.1-.07-.23,0,0,.07,0,0-.06,0-.19a.29.29,0,0,0,0-.12l0-.06,0-.44a.22.22,0,0,0,0-.15.34.34,0,0,1,0-.18s0-.1.08-.21a1.1,1.1,0,0,1,.21-.25l.06,0,.06.06.11,0Z" transform="translate(-0.1 -0.01)"/><path class="cls-11" d="M271.92,38.1a19.94,19.94,0,0,1-3.48-1.71.75.75,0,0,0-.37-.11.67.67,0,0,0-.67.44L265.77,40a.8.8,0,0,0-.12.4.67.67,0,0,0,.42.6,17.61,17.61,0,0,0,6.2,2.29c.7,0,1.22.07,1.57.07a11.09,11.09,0,0,0,4-.71,5.74,5.74,0,0,0,2.73-2.17A9.38,9.38,0,0,0,282,36.85v0a5.27,5.27,0,0,0,0-.82c0-2.73-1.54-5-4.59-6.89l-1.14-.69a7,7,0,0,1-1.48-1.15,2.78,2.78,0,0,1-1-2.14,3.07,3.07,0,0,1,.37-1.46,1.29,1.29,0,0,1,1.52-1h0c.28,0,.45.27.52.71.09.92.13,1.79.13,2.62a.65.65,0,0,0,.73.75h4.29c.5,0,.75-.23.75-.7,0-.8.06-1.47.06-2s0-.92-.06-1.33a5.44,5.44,0,0,0-1-2.85c-1.08-1.32-2.79-2-5.1-2a16.06,16.06,0,0,0-1.86.1,7.37,7.37,0,0,0-5.91,3.73A8.75,8.75,0,0,0,267,26.28a8.36,8.36,0,0,0,.23,2,4.8,4.8,0,0,0,1.38,2.48s0,0,0,0h0a21.3,21.3,0,0,0,2.16,1.71l.09,0,.73.44a27.83,27.83,0,0,1,2.46,1.61,2.54,2.54,0,0,1,1.14,2.14,1.58,1.58,0,0,1-.5,1.25,1.92,1.92,0,0,1-1.31.44A4.25,4.25,0,0,1,271.92,38.1Zm6-15.92H278v.08h-.14Zm1,1.27s0,0-.09,0,0,0,0-.08l0,0,0,0,0-.06v0h0l.08,0ZM278,24.93s0,.06,0,.06h-.18c0-.09.06-.14.18-.14Zm-.87,6.44a.25.25,0,0,1,.06.19h-.29a1.11,1.11,0,0,1,0-.13.66.66,0,0,1,0-.33h.23a.26.26,0,0,1,0,.18Zm-1.6,0v-.15h.33v.15Zm2,.21-.07,0v0l-.31.15-.14-.23.23,0h.14Zm-1,1.27a.19.19,0,0,1,.08.14l-.08,0-.07,0h-.08v-.25l.08.07Zm2,.54-.07,0h-.23c0-.09.08-.18.23-.25l.15.15v.06ZM278,34v-.1l.34,0v.15Zm2,.71s0,0,0,.06a.2.2,0,0,1-.23.23.29.29,0,0,1-.29-.18l.08-.19H280s0,0,0,0Zm-1.66.15-.15-.09.13-.1.14,0Zm.56.87c0,.06,0,.09.1.09s0,.06,0,.06V36a0,0,0,0,0,0,0h-.27l0,0h0l-.08,0,.08-.25h.14Zm1.52.13.11,0-.11.08-.08,0a.29.29,0,0,1-.19.11V36a.13.13,0,0,1,0-.14h.15Zm-1.14.66a.46.46,0,0,1-.25-.06.18.18,0,0,1-.05-.21.2.2,0,0,0,.09,0l.25,0,.06,0s.07,0,.15,0l0,.19-.15.1Zm-.19.59c.19.2.29.3.29.33s0,.09,0,.1v.09h-.06l-.09,0h-.1a.26.26,0,0,1-.19-.08h-.1l-.15,0-.33-.05q-.09-.07-.09-.12l0,0V37.2h.13a1.06,1.06,0,0,1,.29,0,.32.32,0,0,0,.19,0h0a.16.16,0,0,0,.12,0l.06,0A.29.29,0,0,1,279.13,37.1Zm1.1.29v.08h-.29a.3.3,0,0,0,.1-.23h.28Zm-.39.33v-.21H280v.21Zm-.82.19c0,.06-.06.12-.18.19l-.27.14h-.15a.5.5,0,0,1-.29-.06V38.1c0-.07.07-.15.23-.23l.14,0c.13-.09.17-.11.15-.09H279Zm1.07.27c.06.07.1.12.1.15s-.06.18-.17.18l-.16.11a.56.56,0,0,1-.15-.29.24.24,0,0,1,.19-.27Zm-1,.29a.86.86,0,0,1-.39,0v-.14l.14-.13H279s0,0,0,.13Zm-7.54,0v-.12h.23v.12Zm6.77.48-.06.07h-.08s0,0-.09,0V39a.17.17,0,0,1,.09-.14l.06,0,0,0,0,.06Zm-1.25.44c.05,0,.07.1.07.23a.67.67,0,0,1-.3-.08l.07,0,0,0s0,0,.06,0v0S277,39.43,277,39.43Zm2,.08a.13.13,0,0,1,0,.11,1.48,1.48,0,0,1-.44-.11l.39-.08Zm-6.79.15-.16-.08.12-.11.15,0Zm5,.21c.1,0,.16,0,.19,0l.19,0c0,.13-.1.19-.29.19,0,0-.06,0-.15,0Zm-.73.27V40h.15v.19Zm-3.37.67v-.13h.27v.13Zm4,.1c-.06,0-.08-.06-.08-.1s0-.13.08-.13h.29Z" transform="translate(-0.1 -0.01)"/><path class="cls-12" d="M182.13,45.85a.84.84,0,0,1,.27.82l-.33,6.2a1,1,0,0,1-1,1l-13.6,1.69L167,61.71l11.14-.65a1.06,1.06,0,0,1,.79.33,1,1,0,0,1,.34.73v6.07a.94.94,0,0,1-1,1.06q-3,.27-5.92.64A54.41,54.41,0,0,0,166.86,71V81.17a1,1,0,0,1-1,1.1l-7,.17a1.07,1.07,0,0,1-.79-.32,1.1,1.1,0,0,1-.33-.81q.22-10.2.54-15.19.41-8.18,1.48-18.62a1,1,0,0,1,1-1l20.52-1A1.27,1.27,0,0,1,182.13,45.85Zm-16,1.44.21.17h0a.55.55,0,0,1,.23.14.94.94,0,0,0,.11-.25c0-.11,0-.16-.11-.16l-.1.06h-.07Zm1.11.31a.44.44,0,0,0,.1-.31l-.48-.1v.41ZM162.4,48a.16.16,0,0,0,.11-.15c-.14,0-.21,0-.21-.16l.17-.11c-.12,0-.17-.05-.17-.17l-.06.11-.11.06,0,.21.1.21c.07.07.11.12.11.16S162.33,48.05,162.4,48Zm1-.21.05-.1-.28-.07v.07Zm2.71.31V48h-.33v.1Zm8.4.71V49h.21v-.21ZM163,51.17V51h-.11v.15Zm1.43,1.22c.25,0,.38-.08.38-.27a.72.72,0,0,0-.27,0h-.31Zm-1.64,1.23.1-.1-.16-.06-.05.1Zm0,1.86v-.11h-.21v.11Zm2,.54c0-.15-.14-.34-.42-.58l-.1.58Zm1.13,4v-.17l-.07-.06v0h-.41v.38Zm-1.23,0L164,60l-.11.1v.21a.51.51,0,0,0,.42.17l.1-.11.21-.16Zm-1,2.86-.21-.21h.54a.86.86,0,0,0-.21-.23.62.62,0,0,0-.23-.19l-.1.38-.31-.17-.48.31c.07.12.23.17.48.17A1.29,1.29,0,0,1,163.78,62.92Zm12,4.2a.62.62,0,0,1,.14.38V68l.11-.69.06-.41a3.16,3.16,0,0,0-.17-.8v-3a.37.37,0,0,1-.14.32Zm-13-1.23V66h.16v-.11Zm3.5,1.65a1.86,1.86,0,0,0,.58-.1l-.21-.21a.59.59,0,0,0-.52-.21h-.23a.83.83,0,0,1-.31,0A.61.61,0,0,0,166.28,67.54Zm9.58.54v.31H176v-.31ZM158.8,72.64c.07,0,.1,0,.1-.1-.15,0-.23-.09-.23-.21l.13-.1c-.08,0-.13,0-.13-.11a.34.34,0,0,0-.2.32.26.26,0,0,0,.1.2.46.46,0,0,1,.1.17A.63.63,0,0,1,158.8,72.64Zm.73-.35v.1l.21,0,.12,0Zm1.23,4.83c.27,0,.41-.11.41-.33l-.25,0h-.33Zm-1.65,1.07-.1,0,.1.06.11-.1ZM159,80.1v.11h.21V80.1Zm2.23.63c0-.17-.15-.36-.44-.59l-.11.59Z" transform="translate(-0.1 -0.01)"/><path class="cls-12" d="M195.57,73.46a2.09,2.09,0,0,1-2.06-1.15,7.06,7.06,0,0,1-.58-3.17c0-.5,0-1.24.1-2.22l.48-7,1-12.81V47a1.06,1.06,0,0,0-.31-.75,1,1,0,0,0-.75-.31H186.9a1,1,0,0,0-1.06.95l-1.31,12.65c-.32,3.22-.5,6-.54,8.29v1.71a31,31,0,0,0,.21,4.25c.31,3,1.25,5.12,2.81,6.54s4.11,2.13,7.83,2.13q7.07,0,10.79-4.21a15.26,15.26,0,0,0,3.23-7,42,42,0,0,0,.71-7.88V59.83L210.05,47a1,1,0,0,0-.33-.75,1,1,0,0,0-.75-.35h-6.52a.94.94,0,0,0-1.07,1l-.64,12.66v0q-.21,4.32-.38,6.5l-.16,2c0,.15-.06.54-.15,1.17a6.25,6.25,0,0,1-1.27,3.06A4,4,0,0,1,195.57,73.46Zm13.19-24.79a7.27,7.27,0,0,0-.15,1.18l0,0s0,0,0,0a.06.06,0,0,0,.07.07h-.59l-.06-.65v-.64a2.41,2.41,0,0,0,0-.59v-.31a1.63,1.63,0,0,1,.1-.48c.07-.21.18-.31.32-.31s.4.12.39.35,0,.36,0,.4v.21Zm-22.69,5.22a.54.54,0,0,1,.15-.33l.1-.31,0-.31-.06-.38L186,52l.1-.38.17-.58a.45.45,0,0,0-.1-.14l-.07-.17a.26.26,0,0,1,.11-.17l.06-.69c.07-.06.1-.11.1-.14s0-.13,0-.27a.57.57,0,0,0,.21-.38v-.37a1.22,1.22,0,0,0-.12-.34,1,1,0,0,0-.25-.25c.17,0,.27,0,.27-.06a.28.28,0,0,1,.21-.1H187l-.32,6.75a.87.87,0,0,1-.37.37v.11c.07,0,.1,0,.1.06a.29.29,0,0,0,.21-.1,1.46,1.46,0,0,1-.16.62c-.1.16-.19.23-.25.23s0-.1-.11-.1l-.06-.13Zm.31,6.59a1.24,1.24,0,0,1-.64-.31l.06-.21.21-.07.37-.06Zm16.8-.27a.94.94,0,0,0-.09.12.05.05,0,0,1-.06,0l0,0,0,0a.1.1,0,0,1-.11-.11v-.14Zm-16.9,1.87c0,.32-.13.48-.38.48a.3.3,0,0,1-.27-.17c.05-.13.26-.29.65-.47Zm18.23,3.34c0,.11,0,.18,0,.22H204l.1-.22Zm-1.11,1.7a.19.19,0,0,1-.16.07c0-.09-.06-.14-.17-.17.07,0,.11,0,.11-.06h.1a.33.33,0,0,1,.23.06Zm-1,4,.17-.1v.1l-.17.13Zm.75.54h.15l0,.21h-.17Zm-3.41,1.71q.06.15,0,.21h-.48l.12-.21Zm-3.23.69a2.16,2.16,0,0,1-.25.38.88.88,0,0,1-.34,0h-.27a.41.41,0,0,1-.41-.32s0-.1.14-.2l.59,0,.33,0Zm1.37.1.07-.16.14.06-.1.15Zm0,1.75,0-1H198l-.17,1Zm-3.56-.41s.07-.13.21-.27l.14.1a.82.82,0,0,1,.27.31l-.58.07Z" transform="translate(-0.1 -0.01)"/><path class="cls-12" d="M236.89,53.73a1,1,0,0,0,1-1.06l.14-6a1.09,1.09,0,0,0-.31-.8,1,1,0,0,0-.79-.33L213.07,46A1,1,0,0,0,212,47.08l-.33,8A1,1,0,0,0,213,56.17l7.33-1.38L220,66.17a.25.25,0,0,1,.31,0v.1s0,.06-.1.06l-.21-.1-.23,6.54h.06l0,0,0,0-.21,8.5v.17a.87.87,0,0,0,.32.66,1.05,1.05,0,0,0,.75.3l7.22-.17a1,1,0,0,0,1-1.06l0-.38h0a.47.47,0,0,1-.34-.16.54.54,0,0,1-.14-.32l.14-.31a.41.41,0,0,0,.17-.31s-.06-.11-.17-.21a.43.43,0,0,1-.14-.27.6.6,0,0,1,.14-.31,1.78,1.78,0,0,0,0-.44.82.82,0,0,1-.06-.38l.1-.1.09,0,.08-.08q-.21-.11-.21-.21a.36.36,0,0,1-.1-.27c.2-.07.31-.16.31-.27s-.09-.18-.27-.32c0-.06.11-.12.33-.16s.26-.15.15-.25l-.15-.11a.54.54,0,0,1-.27-.06.76.76,0,0,1,.1-.31l.11-.23v-.11l-.17,0-.16,0a.16.16,0,0,1-.09,0c-.07,0-.1,0-.1-.1v-.1h0l0,0,0,0a.63.63,0,0,1,.31-.06.28.28,0,0,0,.28-.21l.14.21.06-.31h-.31c-.18,0-.24-.15-.17-.44a.25.25,0,0,0,0-.31l-.1-.17-.06-.21a.62.62,0,0,1,.16-.2.46.46,0,0,0,.17-.28l-.1-.47-.17-.53,0-.16h.06l.11-.11V72a.69.69,0,0,0-.17-.42l.27-.1a.31.31,0,0,0,.21-.11h.17l.06-1.29h-.06a2,2,0,0,1-.38-.15.52.52,0,0,1,.44-.27L229.66,54Zm-20.84-1.92v-.17h.32v.17Zm4.67.21v-.21H221V52Zm-6,.54a1.15,1.15,0,0,0-.52-.1c-.11-.15-.08-.34.1-.54h.32l.33.2v.23Zm4.9-.48c0,.1,0,.15,0,.15h-.11l-.06.06-.21-.06v-.31h.42Zm-7.71.21v-.17h.48v.17Zm4.31-.06-.21.06-.1.1c-.18.08-.22.17-.11.28-.15.11-.26.12-.33,0l-.17,0a.67.67,0,0,1-.14-.11,1.83,1.83,0,0,0,.31-.27.6.6,0,0,1,.44-.17h.1Zm-1.85.54v-.21l.68.11Zm2,.75c-.25,0-.39-.1-.4-.19s.05-.21.19-.35h.1l.11.06h.2v.38Zm4.14-.38a.52.52,0,0,1-.17.38.43.43,0,0,1-.2-.33h.16Zm-5.89.53v-.21h.31v.21Zm3.66.06c0,.14-.22.2-.54.16a.18.18,0,0,1-.15-.06h-.16a.66.66,0,0,0-.31-.06.44.44,0,0,1,.41-.31c.07,0,.32,0,.75.1Zm2.92,15.35-.11,0,.17-.1.11-.11.1.21-.27.1Zm6,.38a.28.28,0,0,1-.17.1l0,0,0,0-.1-.06v-.1Zm-5.75,1.81a1.56,1.56,0,0,1-.1.44.89.89,0,0,1-.21.31.41.41,0,0,1,.1.27s-.06.09,0,.19a.57.57,0,0,1,0,.16,2.37,2.37,0,0,0,.11.55l.16.31c0,.14-.09.26-.27.37l.11.07a4.19,4.19,0,0,0,0,.48,2.43,2.43,0,0,1,0,.47c-.08.21,0,.35.16.42a.45.45,0,0,1-.33.21l.17.17a.09.09,0,0,1,.1.1l-.06.06a.21.21,0,0,1-.15,0l-.37,0-.21-.12a.29.29,0,0,1-.17,0l.06-.59.11-1.16c.07-.3.07-.45,0-.48v-.38a.89.89,0,0,0,.21-.48s-.06-.11-.17-.21a.33.33,0,0,1-.15-.16.31.31,0,0,1,.11-.17l.14-.14a.32.32,0,0,1-.1-.23c0-.07,0-.11.06-.11l0-.14a.94.94,0,0,1,0-.34,2.16,2.16,0,0,1,.42-1c0,.21.05.3.17.27s.2.1.2.21l0,.21Zm7.67,1s0,0-.07,0v.11h.07Zm-1.09,2.06a.18.18,0,0,1-.1.17l-.21-.06v-.15a.27.27,0,0,0,.17,0Zm-6.75,3.94c-.16.07-.22.16-.14.27A1,1,0,0,1,221,79l-.27,0a1.23,1.23,0,0,1-.25-.48c-.08,0-.13-.13-.13-.31s0-.06.13-.06.05-.09-.06-.25a.24.24,0,0,0,.06-.17l0-.1.06-.65a.31.31,0,0,0-.06-.21.64.64,0,0,1,0-.27s0-.11.08-.27a1,1,0,0,1,.34-.35.15.15,0,0,1,.08,0l.08.08.15,0Z" transform="translate(-0.1 -0.01)"/><path class="cls-12" d="M251.34,73.46a2.09,2.09,0,0,1-2.06-1.15,7.06,7.06,0,0,1-.58-3.17c0-.5,0-1.24.1-2.22l.48-7,1-12.81V47a1.06,1.06,0,0,0-1.06-1.06h-6.54a1,1,0,0,0-1.07.95L240.3,59.52c-.32,3.22-.5,6-.54,8.29v1.71a31,31,0,0,0,.21,4.25c.31,3,1.25,5.12,2.81,6.54s4.11,2.13,7.83,2.13q7.06,0,10.79-4.21a15.26,15.26,0,0,0,3.23-7,42,42,0,0,0,.71-7.88V59.83L265.82,47a1,1,0,0,0-.33-.75,1,1,0,0,0-.75-.35h-6.52a.94.94,0,0,0-1.07,1l-.64,12.66v0q-.21,4.32-.38,6.5l-.16,2c0,.15-.06.54-.15,1.17a6.16,6.16,0,0,1-1.27,3.06A4,4,0,0,1,251.34,73.46Zm13.19-24.79a7.27,7.27,0,0,0-.15,1.18l0,0a0,0,0,0,0,0,0s0,.07.06.07h-.59l-.06-.65v-.64a2.41,2.41,0,0,0,0-.59v-.31a1.63,1.63,0,0,1,.1-.48c.07-.21.18-.31.32-.31s.4.12.39.35,0,.36,0,.4v.21Zm-22.69,5.22a.54.54,0,0,1,.15-.33l.1-.31,0-.31-.06-.38-.21-.54.1-.38.17-.58a.45.45,0,0,0-.1-.14l-.07-.17a.26.26,0,0,1,.11-.17l.06-.69c.07-.06.1-.11.1-.14s0-.13,0-.27a.57.57,0,0,0,.21-.38v-.37a1.22,1.22,0,0,0-.12-.34,1,1,0,0,0-.25-.25c.17,0,.27,0,.27-.06a.28.28,0,0,1,.21-.1h.27l-.31,6.75a1,1,0,0,1-.38.37v.11c.07,0,.1,0,.1.06a.29.29,0,0,0,.21-.1,1.33,1.33,0,0,1-.16.62c-.1.16-.19.23-.25.23s0-.1-.11-.1l-.06-.13Zm.31,6.59a1.24,1.24,0,0,1-.64-.31l.06-.21.21-.07.37-.06Zm16.8-.27a.94.94,0,0,0-.09.12.05.05,0,0,1-.06,0l0,0,0,0a.1.1,0,0,1-.11-.11v-.14Zm-16.9,1.87c0,.32-.12.48-.37.48a.3.3,0,0,1-.28-.17c0-.13.26-.29.65-.47Zm18.23,3.34c0,.11,0,.18,0,.22h-.44l.1-.22Zm-1.1,1.7a.22.22,0,0,1-.17.07c0-.09-.06-.14-.17-.17.07,0,.11,0,.11-.06h.1a.33.33,0,0,1,.23.06Zm-1,4,.17-.1v.1l-.17.13Zm.75.54h.15l0,.21h-.17Zm-3.41,1.71q.06.15,0,.21H255l.12-.21Zm-3.23.69a2.16,2.16,0,0,1-.25.38.85.85,0,0,1-.33,0h-.28a.41.41,0,0,1-.41-.32s0-.1.14-.2l.59,0,.33,0Zm1.37.1.07-.16.14.06-.1.15Zm0,1.75,0-1h.17l-.17,1ZM250,75.48s.07-.13.21-.27l.14.1a.82.82,0,0,1,.27.31l-.58.07Z" transform="translate(-0.1 -0.01)"/><path class="cls-12" d="M293,77a.81.81,0,0,1,.17.52,1,1,0,0,1-.54.85l-5.86,3.84a.87.87,0,0,1-.83.14.93.93,0,0,1-.71-.58,58.4,58.4,0,0,0-2.81-5.73V76q-1.49-2.64-2.29-4l-.9-1.5-3,.81L276.12,81a.94.94,0,0,1-1.07,1.06h-6.52a1,1,0,0,1-.77-.31,1.06,1.06,0,0,1-.31-.79L269.64,48a1,1,0,0,1,.89-1l8-1h.05l1.5-.17c1.41-.13,2.51-.21,3.29-.21a17.66,17.66,0,0,1,4,.42,6.93,6.93,0,0,1,4.62,3.25,11.46,11.46,0,0,1,1.61,6.13,16.63,16.63,0,0,1-.92,5.35,12.47,12.47,0,0,1-2.92,4.63,18.51,18.51,0,0,1-2.08,1.7ZM281.49,48.79v-.12H281v.12Zm-.42.35v.17h.27a.58.58,0,0,1,.11-.17l0,0h-.37Zm2.65.23s0-.06-.1-.06-.11,0-.11-.1v.27Zm-1,.21.13-.1h-.13l-.1.1Zm-1.1.11c.06,0,.1,0,.1.06s0,0,.06,0,.11,0,.11,0v-.06Zm-1.13.27c-.21.16-.24.34-.1.52h.37v0A.68.68,0,0,0,280.53,50Zm5.69,0s0,.08,0,.14a.24.24,0,0,0,.21.11s0,0,0-.11l0,0a.08.08,0,0,0,.06-.08Zm-1,.1a2.41,2.41,0,0,0-.31.38H285l0,0h.07c.17-.1.27-.19.27-.27S285.34,50.13,285.26,50.06Zm-13.77.42v-.27h-.1v.27Zm11.17-.27-.21.23.54,0,.1-.15-.2-.06S282.81,50.21,282.66,50.21Zm.75.12a.18.18,0,0,0,.06.15l0,.1h.31v-.25Zm4.46.15v-.15h-.21v.15Zm-7.44.37,0-.1-.17.1V51Zm3.94.11c.06-.07.06-.11,0-.11l-.11-.1-.1.1V51Zm-1.71.21h.1V51h-.1Zm.75.22a1,1,0,0,1-.32.21l-.2.15h.52Zm1.16.15c-.07-.07-.24-.1-.52-.1a.08.08,0,0,0,.07.08.39.39,0,0,1,.14.08l.21,0h.06v0Zm.82.17-.13,0-.1,0,.1.27.23-.1.1-.11Zm2.7.52a.57.57,0,0,0-.27-.42v.54ZM285.64,52q-.21.1-.21.21t.21.12l.27,0a.77.77,0,0,0,0-.52Zm-6.8.21a1,1,0,0,1,.11.33l.1.31.21-.1-.06-.17,0-.1v-.15c0-.08,0-.12.16-.12Zm7.13.37a1.32,1.32,0,0,0-.33-.1l-.05.27.05.06h.2v-.06H286Zm2.33.59c.11,0,.13-.15,0-.36a1.91,1.91,0,0,0-.47.31Zm.42.12s0,.08.1.15a.28.28,0,0,0,.17.1c0-.13-.1-.21-.17-.21Zm-12,9a16.27,16.27,0,0,0,4.5-1.21,5.89,5.89,0,0,0,2.83-2.83,7.08,7.08,0,0,0,.86-2.71,2.23,2.23,0,0,0-.21-1v-.06c-.14-.39-.55-.67-1.23-.85l-.69-.05a6.47,6.47,0,0,0-1.54.21l-3.73.86Zm10.38-7.85a.21.21,0,0,0-.07-.17l-.2-.06v.23Zm-.07.62a.41.41,0,0,0,.17-.31H287l-.23.1c-.07.08-.08.11,0,.11Zm.75-.1q.27,0,.27-.21h-.27Zm3.94.54c0,.1,0,.15-.1.15a.12.12,0,0,0,.12.06.18.18,0,0,1,.13,0l.33.06c0-.06,0-.1,0-.1a.24.24,0,0,0,.06-.17.93.93,0,0,0-.2-.48v.44Zm-4.14-.1s0,0-.11,0l.36.1-.05-.1a.27.27,0,0,0-.16,0Zm.2.52h.05l-.15-.17-.06.06Zm4.42,0h-.1v1.23h.1Zm-.06,2.33a.65.65,0,0,1,.27-.48c-.18,0-.27-.11-.27-.25s0-.18,0-.33V61a1.29,1.29,0,0,0,.2-.65l-.06-.64a2.55,2.55,0,0,1,0-.52.53.53,0,0,1,0-.27,2,2,0,0,0-.1-.55Zm-5.48-.1a.57.57,0,0,0-.58-.38Zm.44.43v.15h.48v-.15Zm-.92.69s0-.09-.1-.17a.56.56,0,0,0-.28-.1l-.1.38Zm-13.13.79a1.45,1.45,0,0,0-.2-.31.21.21,0,0,1-.11-.21,1,1,0,0,1-.54.25l.44.13c.13.07.21.12.21.14Zm11.69,0a.52.52,0,0,1,.21.09.35.35,0,0,0,.27,0,.35.35,0,0,0,.17-.17v-.27l-.42-.06a.63.63,0,0,1-.17.08s0,0,0,0-.1.06-.1.17Zm-12.85-.21s0,.1.1.17l.11-.06v0c.06-.09.1-.14.1-.17h-.31Zm1.16.69a1.5,1.5,0,0,1-.29-.16.56.56,0,0,0-.35-.15l-.21.1a1.49,1.49,0,0,0-.31.21l.21.06a.24.24,0,0,0,.2.11Zm13.09-.21-.11.21.21.06.11-.22Zm-3.42.75a.32.32,0,0,0-.21.09.18.18,0,0,0-.1.16.36.36,0,0,0,.31.13v.25a2.24,2.24,0,0,0,.54-.15.85.85,0,0,0-.54-.16v-.11C282.84,61.26,282.84,61.2,282.76,61.12Zm1.92.25-.11-.2-.31.33h.42ZM272,61.27h-.1l.1.37h.11Zm11.69.58a.39.39,0,0,0,0-.48h-.31C283.54,61.67,283.65,61.83,283.72,61.85ZM272,61.75l-.1.21.1.06.11-.21Zm1.38.1v.23h.27v-.23Zm7,.07v.2l.27,0Zm2.87.16a2.12,2.12,0,0,0-.54.36h.44l.85.23L284,62.6l0-.1v-.06h-.54Zm1,.9c.07,0,.11,0,.11-.06a.29.29,0,0,0-.07-.21l-.14-.15c-.19.21-.22.37-.11.48Zm-1.17.52a.29.29,0,0,1,.21.12c.21-.17.32-.32.32-.43l-.05-.11-.06,0a1,1,0,0,1-.1-.27l-.11.1h-.1l-.11.11ZM271.28,63s0,0,0,.1h.25s-.07-.13-.21-.27Zm13.84.42v-.21l-.44.1v.15Zm-1,.1c-.29,0-.44.07-.44.21s.11.17.33.17h.11Zm-11.27.06-.34.11v0l.44-.1Zm6.79.42.23-.21-.23-.16a.26.26,0,0,0-.21.27Zm4.69-.1c-.21.11-.32.24-.32.37h.32C284.5,64.2,284.5,64.08,284.37,63.94Zm-.42.48c0-.11-.08-.2-.23-.28a.39.39,0,0,0-.21.09c-.07.06-.1.1-.1.12a.59.59,0,0,0,.31.07Zm1.31.1s0-.06-.1-.06l0,0s0,0,0,0l-.11-.07h-.37a1.26,1.26,0,0,1,.1.44.41.41,0,0,0,.27,0h.25Zm-5.79.69h-.21v.1h.21Zm5.21.31c.15,0,.24,0,.27,0a.28.28,0,0,0,.1-.17.74.74,0,0,0-.48-.1Zm-5.21.54c0,.07,0,.11.06.11h.15c0-.18,0-.28,0-.28S279.47,66,279.47,66.06Zm5.17.11a.7.7,0,0,0-.27.47l.1.07h.37l-.1-.34Zm.27.58-.17.21L285,67l.17-.21Zm.48.48a.67.67,0,0,0,.45-.17l-.45-.1Q285.26,67.19,285.39,67.23Zm-.75-.17a.39.39,0,0,0-.48.06c.06.08.19.11.37.11a.1.1,0,0,0,.11-.11Zm-4.84,1-.12.06.06.11h.1Zm5.69,2.08a.28.28,0,0,0-.06-.21l0,0,0,0-.07.06h-.06Zm4.4,2.4c.08,0,.12,0,.12-.17h-.27Zm.27.31h-.27v.31a.54.54,0,0,0,.43.17.57.57,0,0,1-.1-.31Zm.27,1.13-.11.14.11.06.1-.16Zm.79,2.16c0-.13-.1-.22-.31-.25s-.17.17-.17.21a.41.41,0,0,0,.13.29.36.36,0,0,0,.25.13l.06-.15Zm-1.44.82a1.07,1.07,0,0,0,.29-.07.78.78,0,0,0,.3-.16l-.15,0-.17-.1a.83.83,0,0,0-.37-.06.39.39,0,0,0-.21.06.15.15,0,0,0-.1.15A.56.56,0,0,0,289.78,76.92ZM271.49,80a.29.29,0,0,0,.33-.23h-.2C271.62,79.93,271.57,80,271.49,80Z" transform="translate(-0.1 -0.01)"/><path class="cls-12" d="M321.21,45.37a1.12,1.12,0,0,1,.85.34,1.06,1.06,0,0,1,.31.79l-.14,6.33a1,1,0,0,1-1,1.06l-14.63,1.55-.37,4.39,11-.58v5.21h.21V59.25a1.06,1.06,0,0,1,.77.33,1,1,0,0,1,.36.73v5.54a1,1,0,0,1-.9,1.07L306,68.46l-.27,4.41,14.18-.43a1,1,0,0,1,.79.33,1,1,0,0,1,.34.73v6.71a1,1,0,0,1-1,1.06L297.6,82.44a1.09,1.09,0,0,1-.79-.3,1,1,0,0,1-.33-.83q.12-7.84.48-16.37.38-7.81,1.33-17.59a1,1,0,0,1,1.06-1Zm-15.15,1.17h.1v-.15h-.1Zm3.46.33s-.06.06,0,.09l.14,0C309.55,47,309.52,47,309.52,46.87Zm1,.9a.29.29,0,0,0,.1-.21c0-.13-.1-.21-.31-.21a.6.6,0,0,0-.48.21l-.17.21c.11-.07.17-.14.17-.21l.27-.06c.21,0,.31.13.31.27V48A.31.31,0,0,1,310.52,47.77Zm8-.38h-.11v.17h.11Zm-15.11.34h1.13v-.17h-1.13Zm3.84-.17h-.75v0h-.11c-.18.09-.27.14-.27.17h.38l.06,0h.69Zm-1.75.21h.14v-.1h-.14Zm8.81,0h-.42V48h.42ZM308,48c-.08,0-.11.09-.11.27l.21-.21C308.17,47.93,308.14,47.91,308,48Zm3.5.16h-.21v.11h.21Zm-8.57.9.07.23v.1h.21s0-.09.1-.16l.1-.11Zm6.5.75q-.27-.1-.27-.21v-.06l.27-.25-.22.1h-.11l-.08,0a.09.09,0,0,1-.06,0h-.11a.83.83,0,0,0-.44.43l.11.11h.64l.07,0,0,0h.06Zm1.8.17h.06l0,0,.06-.15h-.16Zm-3,.37-.11-.33c-.29.11-.44.22-.44.33a.29.29,0,0,0,.23,0Zm2.33.42c0-.07-.1-.17-.27-.31l-.15.31Zm2.19.06s0-.09-.11-.17l-.1-.1c-.29.1-.44.2-.44.31Zm-3.57,0a1.1,1.1,0,0,0-.48-.16.24.24,0,0,0-.27.27l.27.16.17.05h0c.07,0,.11-.05.11-.15Zm2.07.44q.09.1.27,0c0-.22-.08-.34-.21-.37l-.21,0-.21.06.11.27ZM300,51.12h0l-.11.05.11.06Zm9.9.48c.1,0,.16-.06.16-.21s-.09-.22-.27-.22l-.1.06h-.07l0,.06a.29.29,0,0,0-.1.21l0,.1Zm7.91-.37h-.1v.27h.1Zm-8,2.6h-.1V54h.1Zm-4.31.17c-.07,0-.11,0-.11.14h.11l.06,0S305.52,54.07,305.52,54Zm-.31,2.6-.11.11.27,0s0-.11,0-.25A.29.29,0,0,0,305.21,56.6Zm.27,1.07,0-.07-.25,0v0Zm.31,2.12h.27v-.27h-.27Zm.17.69q-.18,0-.21-.06l-.23-.05,0,.05a.22.22,0,0,0-.17.22c0,.17.15.25.44.25a.41.41,0,0,0,.21,0Zm4,.31h0v0Zm7.6.71a.62.62,0,0,1,.25,0l.27.06.21-.27v-.44a.74.74,0,0,0-.19-.08.53.53,0,0,0-.23-.06l-.31.21Zm-7.35-.65.12-.06h-.12Zm-1.38.52.27.23a.27.27,0,0,0,.13-.18c0-.1,0-.16-.08-.19Zm1.38.07.23.1.1-.31h-.21Zm-3.13.37c.21-.07.21-.17,0-.31Zm-.79.31.21.21.27.06,0-.06H307v-.25a.41.41,0,0,1-.32-.12l-.1.06,0,0,0,0Zm2.54,0,.11.21h.37l-.16-.1L309,62Zm-3.5.15a1.2,1.2,0,0,0-.23-.09.69.69,0,0,0-.25-.06q0,.11.15.21a.74.74,0,0,0,.48.1h.17v-.16Zm3.4.64h.42a.18.18,0,0,0,.12-.16V62.5h-.44l0,.21Zm-3.77.32s0,.07,0,.08,0,0,.08,0l.17-.06-.13,0h0C305,63.14,305,63.16,305,63.19Zm-.65,1a.51.51,0,0,0,.38-.11.27.27,0,0,1-.21-.12l-.06,0h-.25a.43.43,0,0,0-.17.31Zm.75.25a3.2,3.2,0,0,1-.75-.11l-.14.11.14.23c.07-.18.16-.24.27-.17A1.48,1.48,0,0,0,305.1,64.46Zm-2.29,0a.23.23,0,0,0-.15.23l.15.1.21-.06c0-.07.05-.12.17-.15l-.17-.06Zm14.46,1.43.23-.25.1-.22-.1-.38a1.56,1.56,0,0,1-.23-.46ZM305,65.42a1.62,1.62,0,0,1,.33-.53l-.23-.06h-.2a.62.62,0,0,0-.32.11l-.41.16.27.13.18.08a.49.49,0,0,0,0,.38l.48-.11Zm-1.44-.11q.16.1.27,0l0,0-.1-.06-.13.06Zm1.71,0a.51.51,0,0,0,.13.21.51.51,0,0,0,.25,0,1.85,1.85,0,0,0,.37-.1l-.17-.15Zm-1.58.15c-.23.11-.28.2-.17.27l0,.2a.25.25,0,1,0,.13-.47Zm2.37.54h-.25c-.11,0-.16,0-.16.1a.1.1,0,0,1-.11.11c0-.18-.06-.29-.17-.32h-.31c0,.08,0,.11.11.11l.16.16-.37.15-.27.21a.17.17,0,0,0,.12.06.22.22,0,0,1,.15.06h.41a1.78,1.78,0,0,0,.69-.23Zm-1.89.21a.29.29,0,0,0-.27.18.68.68,0,0,0-.11.36V67a.74.74,0,0,0,.48.23h.15l.16-.13v-.69l-.21-.14Zm-.86.27a.3.3,0,0,0-.16.08c-.08.06-.11.1-.11.12a.5.5,0,0,0,.38,0Zm11.79.31h.65V66.6h-.65Zm-9.29.17c.07,0,.11-.06.11-.17h-.34l-.1.17Zm-2.94,0c-.16,0-.25.12-.25.23h.25S303,67.07,302.91,67Zm2.46.33a.85.85,0,0,0,.32,0,.37.37,0,0,0-.21-.27Zm-1.54,0c-.16.14-.23.25-.23.31l.48.07.13-.23c-.09-.07-.13-.12-.13-.15Zm.9.42-.07-.32c-.16,0-.25.08-.25.21v.21Zm1,.1c0-.07,0-.1-.13-.1l-.1-.11a1.13,1.13,0,0,1-.48.07l-.21,0-.1.06L305,68a2.33,2.33,0,0,1,.37-.11Zm-.86.54.15-.1-.42-.11v.21Zm-.37,0a1.13,1.13,0,0,0-.44-.1l.13.21A.39.39,0,0,0,304.52,68.35Zm-.65.32s0,.09-.1.16l.58,0c.07,0,.11,0,.11-.14Zm-.52.37a.34.34,0,0,0,.31.17l-.2-.44-.38.06Zm.9.48c-.08-.14-.09-.23,0-.27a.35.35,0,0,0,0-.21l-.17.17s-.06,0-.06.1v.21Zm1.06-.1q.27,0,.27-.21h-.27Zm-2.81-.17c-.12,0-.17.1-.17.17l.33.1a.23.23,0,0,1,0-.17l.06,0Zm1.48.37v.21h.16v-.21Zm.27.11c0,.07,0,.1.06.1l0,.11.38-.11s-.07,0-.07-.1v0l-.16,0-.09,0Zm.85.48h-.31v.21h.31Zm-3,.31a.24.24,0,0,0,.06.33.34.34,0,0,0,.27-.33Zm1.13.37.1.07a.22.22,0,0,0,.17-.07l-.07-.27h-.1l0,0,0,0h-.13v.2Zm-1.13.86q.22,0,.27-.06a.14.14,0,0,1,0-.07l.09-.08-.15-.1-.27.1Zm1.54-.11h-.25v0l.21.06Zm-.83.65a.33.33,0,0,0,.25.1v-.33C302.92,72.06,302.84,72.14,302.77,72.29Zm4.67,2h.43v-.12h-.43Zm2.12,0-.25.17a.21.21,0,0,1,.15.21h.27a.35.35,0,0,0,.1-.17l.06-.1-.12-.27a.17.17,0,0,1-.06.12A.22.22,0,0,1,309.56,74.35Zm3,.21h.11l0-.1,0,0Zm-4.52-.1h-.31v.1h.31Zm2.44.43.21-.06a0,0,0,0,0,0,0l-.11-.12Zm-3.08.11.1.1c.18-.06.21-.13.1-.21s-.1,0-.1,0h-.1Zm1.87.1A.47.47,0,0,0,309,75l.1.37,0,0,0,0s.06,0,.06-.1S309.31,75.18,309.31,75.1Zm1,.11q-.27.11-.27.27h.27a.24.24,0,0,1,.06-.17Zm-7.54.79v.33l.1-.12.21-.21Zm1.06,0c0,.11.08.17.25.17v-.11a.05.05,0,0,1,.06-.06Zm2.75.17.11.2h.12l-.17-.2Zm5.11.16c0,.17.08.25.27.25l.1-.14.06-.11Zm-1.86.11h-.1l-.07.14h.17Zm-1.71.31,0,0,.05,0-.11-.11H308l.1.21,0,0Zm-4.62.58h-.42v.27h.42Zm-4.88,1.17c0-.18.05-.28.15-.31h-.69v.31ZM318,78.39l.64.11v-.17l-.52-.14Zm-15.9-.1h-.58v.21h.58Zm3.52.21v.27H306V78.5Zm2.92.21a1.38,1.38,0,0,0,0,.43l0,.28h.75l.1-.23s.06-.1.06-.21l-.27-.27Zm-8.19.27h.58v-.21h-.58Zm2.35,1.12a.49.49,0,0,0,.25-.29,1.35,1.35,0,0,0,.11-.52.71.71,0,0,0-.15-.48,1.31,1.31,0,0,0-.43.17A2.63,2.63,0,0,1,302.66,80.1Zm-5.33-.75c0,.12.14.16.29.15a.63.63,0,0,0,.36-.15Zm2.23.21h-.1v-.21H299v.21h.48v.21h.1Zm5.54.11a1.77,1.77,0,0,0-.58.06l-.31.1-.27.06a.86.86,0,0,1,.2.19,2.21,2.21,0,0,1,.17.23,3.69,3.69,0,0,0,.52-.42Zm-3.62.47a.55.55,0,0,0,.1-.31h-.89v.48a2.37,2.37,0,0,1,.75.11Zm9.73,0h.37V80h-.37Zm6.75.69c0,.11,0,.17-.11.17a.52.52,0,0,0,.34-.17Zm-17.11.1h-.44v.21h.44Z" transform="translate(-0.1 -0.01)"/></svg>